<svg xmlns="http://www.w3.org/2000/svg" width="60" height="60" viewBox="0 0 60 60">
  <rect id="Rectangle_71" data-name="Rectangle 71" width="60" height="60" rx="2" fill="#cddc39"/>
  <g id="support" transform="translate(6.642 6.364)">
    <path id="Path_151" data-name="Path 151" d="M19.936,15.461a3.9,3.9,0,0,1,2.937.232c-.077-.232-.077-.464-.155-.7a12.008,12.008,0,0,1-.309-2.86,4.586,4.586,0,0,1,.387-1.778v-.077a1.262,1.262,0,0,1,1.623-.773c.077,0,.155.077.232.077a4.48,4.48,0,0,1,1.314,1.082c.077.077.155.232.309.387l-.155.077c-.309-.309-.618-.541-.85-.773a2.4,2.4,0,0,0-1-.464.777.777,0,0,0-.85.387,4.431,4.431,0,0,0-.309,1.082,9.6,9.6,0,0,0,.309,2.551v.232c-.077.387-.232.85-.309,1.237a4.7,4.7,0,0,0-.077,1.469v.232l-.155-.077a3.415,3.415,0,0,0-1.237-.464,1.993,1.993,0,0,0-1.7.541.659.659,0,0,1-1,0c-.077-.077-.155-.155-.155-.232s-.077-.155-.077-.232a19.849,19.849,0,0,0-2.4-6.262,11.4,11.4,0,0,0-2.242-2.474,4.3,4.3,0,0,0-1.314-.7,1.33,1.33,0,0,0-1.623.541,4.83,4.83,0,0,0-.773,1.7,11.508,11.508,0,0,0-.232,3.247,17.571,17.571,0,0,0,2.164,7.344,10.885,10.885,0,0,0,2.087,2.86,5.078,5.078,0,0,0,1.314.928,1.478,1.478,0,0,0,1.391,0,1.182,1.182,0,0,1,1.623.541h0a.465.465,0,0,1,.077.309,4.408,4.408,0,0,1,.077,1,23.682,23.682,0,0,0,.773,3.942,25.712,25.712,0,0,0,2.4,6.107,13.513,13.513,0,0,0,2.164,3.015,3.966,3.966,0,0,0,1.778,1.16,1.916,1.916,0,0,0,1.314,0,1.683,1.683,0,0,0,.7-.541,6.448,6.448,0,0,0,.618-.928c0-.077.077-.077.077-.155a11.491,11.491,0,0,0,2.4-1.546h.077a1.819,1.819,0,0,1-.155.618,8.824,8.824,0,0,1-1,2.706,4.491,4.491,0,0,1-1.7,1.7,3.679,3.679,0,0,1-2.86.232,6.1,6.1,0,0,1-2.4-1.314A14.3,14.3,0,0,1,20.4,37.57a31.438,31.438,0,0,1-2.551-5.1,25.987,25.987,0,0,1-1.391-5.875c0-.077,0-.077-.077-.077a5.207,5.207,0,0,1-2.783-.928,11.735,11.735,0,0,1-2.4-2.4A17.427,17.427,0,0,1,8.65,17.935a21.4,21.4,0,0,1-.773-3.865,16.653,16.653,0,0,1,.232-4.793,7.341,7.341,0,0,1,1-2.551,3.881,3.881,0,0,1,1.778-1.391,3.066,3.066,0,0,1,2.474.077,5.836,5.836,0,0,1,2.319,1.546A13.375,13.375,0,0,1,18,10.127a22.4,22.4,0,0,1,1.855,5.411C19.936,15.384,19.936,15.461,19.936,15.461Z" transform="translate(0 0)" fill="#fff"/>
    <path id="Path_152" data-name="Path 152" d="M13.4,20.163h0a6.231,6.231,0,0,1,2.319-1.933,3.009,3.009,0,0,1,2.164-.155,2.612,2.612,0,0,1,1.7,1.778,4.854,4.854,0,0,1,.232,1.469A9.537,9.537,0,0,1,25,19.7a1.1,1.1,0,0,0-.155-.464,5.193,5.193,0,0,1,1.314-4.793,6.577,6.577,0,0,1,3.556-2.164,8.8,8.8,0,0,1,7.344.928,6.168,6.168,0,0,1,2.783,3.324,5.344,5.344,0,0,1-.464,4.715,7.027,7.027,0,0,1-3.788,3.015,9.042,9.042,0,0,1-1.546.387h-.155c.155.309.387.7.541,1a10.818,10.818,0,0,1,.85,3.092,9.987,9.987,0,0,1-.773,5.411,9.823,9.823,0,0,1-6.184,5.566,6.628,6.628,0,0,1-2.087.387h-.077l-1-1v-.077h.618a8.051,8.051,0,0,0,5.025-2.01,8.609,8.609,0,0,0,3.092-5.488,9.419,9.419,0,0,0-1.7-7.112.738.738,0,0,1-.155-.773.812.812,0,0,1,.7-.387,7.081,7.081,0,0,0,4.252-1.469,4.894,4.894,0,0,0,1.7-2.4,4.272,4.272,0,0,0-.232-3.092,5.426,5.426,0,0,0-2.01-2.164,7.353,7.353,0,0,0-4.561-1.16,7.625,7.625,0,0,0-4.252,1.469,4.975,4.975,0,0,0-1.855,2.783A3.882,3.882,0,0,0,26,19.854a.27.27,0,0,0,.077.155.341.341,0,0,1-.309.464h-1.16a9.519,9.519,0,0,0-4.793,1.546l-.077.077a.345.345,0,0,1-.387,0c-.077,0-.077-.077-.077-.232a3.86,3.86,0,0,0-.155-2.087,2.222,2.222,0,0,0-2.551-1.469A5.363,5.363,0,0,0,13.864,19.7Z" transform="translate(-1.271 -1.533)" fill="#fff"/>
    <path id="Path_153" data-name="Path 153" d="M34.863,26.154a12.889,12.889,0,0,0,.618,1.546,32.57,32.57,0,0,1,1.391,5.566,12.641,12.641,0,0,1,.155,1.7v.155a8.634,8.634,0,0,1-1.469,1.855l-.309.232h0v-.387a24.932,24.932,0,0,0-.618-7.189,37.977,37.977,0,0,0-1.16-3.942.615.615,0,0,1,.155-.7.575.575,0,0,1,.7-.077H34.4a.5.5,0,0,0,.7-.155c0-.077.077-.077.077-.155a3.24,3.24,0,0,0,.309-1.16,10.842,10.842,0,0,0-.464-3.865,22.559,22.559,0,0,0-1.623-4.329c0-.077-.077-.077.077-.155a7.058,7.058,0,0,0,.618,1A19.473,19.473,0,0,1,36.023,20.9a9.6,9.6,0,0,1,.309,2.551,6.766,6.766,0,0,1-.155,1.237A1.97,1.97,0,0,1,34.863,26.154Z" transform="translate(-5.805 -2.267)" fill="#fff"/>
    <path id="Path_154" data-name="Path 154" d="M21.613,43.932A10.219,10.219,0,0,1,16.048,32.8l.618.232v.077a8.738,8.738,0,0,0,0,2.01,8.29,8.29,0,0,0,1.082,3.556A9.128,9.128,0,0,0,20.608,42l.077.077Z" transform="translate(-1.831 -6.285)" fill="#fff"/>
    <path id="Path_155" data-name="Path 155" d="M14.515,31.5a2.624,2.624,0,0,1-2.01-.309,2.411,2.411,0,0,1-1.237-1.778,2.947,2.947,0,0,1-.077-1.16V28.1a1.554,1.554,0,0,1,.309.618,4.914,4.914,0,0,0,.464,1.391,2.175,2.175,0,0,0,1.855,1c.077,0,.155,0,.155.077C14.128,31.192,14.283,31.347,14.515,31.5Z" transform="translate(-0.762 -5.218)" fill="#fff"/>
  </g>
</svg>
