<svg xmlns="http://www.w3.org/2000/svg" width="83.83" height="34.992" viewBox="0 0 83.83 34.992">
  <path id="logo-hub" d="M49.769,21.373V1.259A1.246,1.246,0,0,0,48.511,0H37.761A1.246,1.246,0,0,0,36.5,1.259V21.373a8.608,8.608,0,0,0,.478,2.945,6.8,6.8,0,0,0,1.385,2.341A6.1,6.1,0,0,0,40.48,28.2a6.336,6.336,0,0,0,2.668.554,6.142,6.142,0,0,0,2.643-.554,6.34,6.34,0,0,0,2.089-1.536,7.212,7.212,0,0,0,1.385-2.341A8.612,8.612,0,0,0,49.769,21.373Zm33.507.7a8.384,8.384,0,0,0-1.561-2.593,8.9,8.9,0,0,0-2.442-1.838,9.914,9.914,0,0,0-3.172-.957v-.076a9.2,9.2,0,0,0,4.431-2.794,7.337,7.337,0,0,0,1.662-4.909A8.114,8.114,0,0,0,81.036,4.3a8.114,8.114,0,0,0-3-2.694A12.692,12.692,0,0,0,73.861.327,31.752,31.752,0,0,0,69.254,0H58.3a1.246,1.246,0,0,0-1.259,1.259V21.65a17.341,17.341,0,0,1-.881,5.589,11.98,11.98,0,0,1-7,7.376c-.352.151-.7.252-1.082.378H70.538a23.021,23.021,0,0,0,4.708-.5,13.874,13.874,0,0,0,4.28-1.636,9.515,9.515,0,0,0,3.1-3A8.255,8.255,0,0,0,83.83,25.25,8.95,8.95,0,0,0,83.276,22.078ZM65,6.52h4.154a9.266,9.266,0,0,1,1.838.176,5.551,5.551,0,0,1,1.687.579,3.253,3.253,0,0,1,1.234,1.108A3.34,3.34,0,0,1,74.39,10.2a3.68,3.68,0,0,1-.428,1.787,3.194,3.194,0,0,1-1.133,1.183,5.261,5.261,0,0,1-1.586.655,8.222,8.222,0,0,1-1.762.2H64.975V6.52ZM75.573,26.282a4.013,4.013,0,0,1-1.234,1.284,4.756,4.756,0,0,1-1.687.68,9.084,9.084,0,0,1-1.813.2H65v-7.93h4.758a14.982,14.982,0,0,1,2.039.151,7.61,7.61,0,0,1,2.039.554A4.03,4.03,0,0,1,75.4,22.38a2.99,2.99,0,0,1,.629,1.989,3.536,3.536,0,0,1-.453,1.913Zm-37.409,8.71a7.857,7.857,0,0,1-1.082-.378,11.906,11.906,0,0,1-4.355-2.945,12.666,12.666,0,0,1-2.643-4.431A17.341,17.341,0,0,1,29.2,21.65V1.259A1.246,1.246,0,0,0,27.943,0H22.531a1.246,1.246,0,0,0-1.259,1.259V13.04H8.005V1.259A1.246,1.246,0,0,0,6.747,0H1.259A1.246,1.246,0,0,0,0,1.259V33.733a1.246,1.246,0,0,0,1.259,1.259H6.747a1.246,1.246,0,0,0,1.259-1.259V19.862H21.272V33.733a1.246,1.246,0,0,0,1.259,1.259Z" fill="#253b56"/>
</svg>
