<svg id="svg40" xmlns="http://www.w3.org/2000/svg" viewBox="0 0 155.57 29.35"><defs><style>.cls-1{fill:#fff;}</style></defs><path id="path2" class="cls-1" d="M150.73,19.25a2.42,2.42,0,1,1,2.43,2.39A2.39,2.39,0,0,1,150.73,19.25Zm2.43,2a2,2,0,1,0-1.95-2A1.92,1.92,0,0,0,153.16,21.24Zm-.51-.61h-.42V17.88h1.05c.65,0,1,.24,1,.78a.72.72,0,0,1-.72.76l.79,1.21h-.47l-.73-1.19h-.48v1.19Zm.5-1.55c.35,0,.67,0,.67-.45s-.31-.4-.6-.4h-.57v.85Z" transform="translate(0 0)"/><path id="path4" class="cls-1" d="M123.56,7.35h-3.9v.39c.67.06,1.36.14,1.36.95a5.22,5.22,0,0,1-.31,1.48l-2.47,7-2.6-7a6.76,6.76,0,0,1-.53-1.61c0-.74.91-.78,1.52-.78V7.35h-5.26v.39c1,0,1.34.14,2,1.85l.65,1.69L111.9,17.1l-2.84-7.75a2.89,2.89,0,0,1-.22-.91c0-.54.4-.66,1.28-.7V7.35H105.3v.39c1.12.1,1.39.7,2,2.41.74,2.06,2.79,7.92,3.8,11.07h.29l3-8.72c.84,2.25,2.46,6.58,3.15,8.72h.3c1.16-4,2.73-8.39,4.09-12.22a1.62,1.62,0,0,1,1.56-1.26Z" transform="translate(0 0)"/><path id="path6" class="cls-1" d="M125.51,11.51c-2.64,0-4.26,2.25-4.26,4.78,0,2.78,1.78,4.91,4.32,4.91,3,0,4.37-2.87,4.37-4.91C129.94,13.3,128.09,11.51,125.51,11.51Zm.33,9.11c-2.36,0-2.81-3.79-2.81-5.32,0-2.14,1.08-3.21,2.32-3.21,1.81,0,2.82,2.25,2.82,4.8C128.17,19.84,126.85,20.62,125.84,20.62Z" transform="translate(0 0)"/><path id="path8" class="cls-1" d="M131.71,19.26c0,1.15-.32,1.22-1.4,1.42V21H135v-.31c-1,0-1.68-.12-1.68-1.54V14.5c0-.66.87-1.69,1.34-1.69s.67.72,1.36.72c.48,0,.75-.39.75-.91a1,1,0,0,0-1.06-1.11c-.75,0-1.42.41-2.35,1.88h0V11.55l-.1,0c-1,.41-1.95.78-2.91,1.11V13a2.92,2.92,0,0,1,.67-.08c.31,0,.69,0,.69,1.24Z" transform="translate(0 0)"/><path id="path10" class="cls-1" d="M136.51,21h4.65v-.31c-1.14-.06-1.48-.22-1.48-1.42V7l-.08,0c-1,.35-2.09.64-3.13.91v.33c.24,0,.41,0,.67,0,.77,0,.89.33.89,1.26V19.2c0,1.13-.36,1.4-1.52,1.48V21Z" transform="translate(0 0)"/><path id="path12" class="cls-1" d="M150.33,19.8c-1.32.1-1.32-.31-1.32-1.16V7l-.09,0c-.95.35-1.92.64-2.9.91v.33a4,4,0,0,1,.47,0c.87,0,.87.43.87,1V12.4a2.85,2.85,0,0,0-2.09-.89c-2.2,0-4.08,2.37-4.08,5.07,0,4.21,2.82,4.62,3.59,4.62a2.81,2.81,0,0,0,2.54-1.32h0v1.26l.08.06,2.89-1.07Zm-3-.91a1.74,1.74,0,0,1-1.75,1.24c-1.3,0-2.72-1.16-2.72-4.23,0-2.8,1.34-3.81,2.44-3.81a2.08,2.08,0,0,1,2,2.06v4.74Z" transform="translate(0 0)"/><path id="path16" class="cls-1" d="M39.83,13.58c0-1-.2-2-1.08-2.44-1.42-.47-2.6.69-3.37,1.61l0,.05h-.07a5.57,5.57,0,0,1-3.08-1.42A.81.81,0,0,1,32.1,11a.48.48,0,0,0-.05-.22,1.29,1.29,0,0,0-.54,1.05v.05c.13,1.42,1.67,2,2.79,2.52l.14.06-.18.57a13.44,13.44,0,0,0-.43,1.5A19.09,19.09,0,0,0,33.44,20a5.31,5.31,0,0,0,1,3.41,1.32,1.32,0,0,0,1.29.51c.21-.06.26-.14.26-.23A25.23,25.23,0,0,1,36.49,15l0-.1.09,0a6,6,0,0,0,1.61-.07A2.15,2.15,0,0,0,39.83,13.58Zm-1.3-.91-.07,0a1.77,1.77,0,0,1-1.2.18h-.09v-.1a1,1,0,0,1,.38-.74,1.34,1.34,0,0,1,.92-.3.62.62,0,0,1,.44.26h0c.17.34-.21.56-.39.66Z" transform="translate(0 0)"/><path id="path18" class="cls-1" d="M46,20.21a16.43,16.43,0,0,0,1.76,1l.06,0v.07a3.88,3.88,0,0,0,.71,2.22,2,2,0,0,0,1.15,0c.47-.19.52-.69.57-1.13v-.23l.69.13c.5.1,1.07.21,1.83.3,3.87.49,9.25-.5,11.64-4.86,2-4.1-1.63-8.07-4-10.08a25,25,0,0,0-2.27-1.74C54.28,3.41,46.54-.36,38.58,2a2.37,2.37,0,0,0-1.35,1.9,1.72,1.72,0,0,0,1.43.38h.28l.16-.07c.14,0,.21-.08.24-.15-.13-.22-.37-.27-.65-.33a1.48,1.48,0,0,1-.59-.2L38,3.39l.1-.09a.8.8,0,0,1,.48-.21A.82.82,0,0,0,38.86,3l0,0h0a25.86,25.86,0,0,1,18.83,5c2.63,1.89,5.56,5,4.59,8.78-1,2.76-4.24,4.13-9.76,4.07a6.5,6.5,0,0,1-2.29-.41l-.07,0v-.08c0-2.38,0-5.15-.06-6.29v-.11h.11a16.87,16.87,0,0,1,6.48,1.25.25.25,0,0,1,.13.21h0c0,.28-.38.61-.91,1l-.32.27,0,0h0a1.57,1.57,0,0,0,1.07.27,2.59,2.59,0,0,0,1.82-1.53,1.48,1.48,0,0,0,.07-.44A1.91,1.91,0,0,0,58,13.69c-2-1.68-4.7-1.74-7.34-1.8h-.45v-.45a21.24,21.24,0,0,0-.23-3,1.47,1.47,0,0,0-1.12-1.3,3.59,3.59,0,0,0-.61,2L48,10.73,47.89,12v.08l-2.5.53c-1.1.26-4.08,1.31-4.08,2.81a1.36,1.36,0,0,0,0,.2C41.75,17.34,44.71,19.4,46,20.21Zm-4.17-4.77c.14-.37.85-.6,1.57-.79l.08,0a19.53,19.53,0,0,1,4.3-.62h.12v.12c-.12,1.85-.15,4-.14,5.33v.15l-.14,0a11.16,11.16,0,0,1-5.75-3.74A.41.41,0,0,1,41.79,15.44Z" transform="translate(0 0)"/><path id="path20" class="cls-1" d="M75.25,20.91c1.28-.2,3-.65,3.36-2.23a2.74,2.74,0,0,0-.7-2.73A7.81,7.81,0,0,0,74.08,15a10.44,10.44,0,0,1-3.16-.56h0l-.06-.24A.36.36,0,0,1,71,14a18.31,18.31,0,0,1,4-.59A21.69,21.69,0,0,0,78.49,13a.82.82,0,0,0,.43-.46.42.42,0,0,0,0-.28,1.87,1.87,0,0,0-1.11-.43l-.09,0c-2.5-.42-6-.48-8.14,1.64A2.19,2.19,0,0,0,69.32,15a1.27,1.27,0,0,0,.74.71,16.38,16.38,0,0,0,2.52.26c1.67.08,3.4.16,4.73,1.21a.52.52,0,0,1,.11.46.8.8,0,0,1-.43.5,9.8,9.8,0,0,1-5.93.85,1.06,1.06,0,0,1-.64-.48.38.38,0,0,1,0-.36c.66-1,1.64-.6,2.5-.24a5.06,5.06,0,0,0,1,.33,2.76,2.76,0,0,0,2.17-.61.17.17,0,0,0,0-.05s0,0,0,0c-.08-.2-.65-.37-.83-.42-1.72-.47-3.65-.83-4.93.06a1.46,1.46,0,0,0-.42,1.59A5.21,5.21,0,0,0,75.25,20.91Z" transform="translate(0 0)"/><path id="path22" class="cls-1" d="M99,21.31h.09a4,4,0,0,0,2.6-.43c1.88-.91,3.94-3,4-5.41a3.43,3.43,0,0,0-1.49-3.08.93.93,0,0,0-.94,0A17,17,0,0,0,98,17.72l-.21,0a6.56,6.56,0,0,1,1.1-3.45,7,7,0,0,0,1-2.74c0-.07,0-.1,0-.11s-.55.27-.76.56h0C97.39,14,95.55,16.8,97,19.5l0,.05,0,.05a26.37,26.37,0,0,0-1.94,7.92,2.14,2.14,0,0,0,1.17,1.61l0,0c.38.19.5.21.54.19h0a44.25,44.25,0,0,1,2.12-8Zm1.27-2.38a16.58,16.58,0,0,1,3.72-5,.19.19,0,0,1,.23,0c.3.14.39,1.31.34,1.75h0c-.25,1.65-2.28,3.05-3.3,3.34a2.93,2.93,0,0,1-.84.1h-.22Z" transform="translate(0 0)"/><path id="path24" class="cls-1" d="M83.86,15.64a14.23,14.23,0,0,0-2.54-3.28.29.29,0,0,0-.23-.07.62.62,0,0,0-.38.34,14,14,0,0,0-1.26,5.43l0,.26c-.07,1-.15,2.13.77,2.6.27.09.62,0,.71-.17a15.78,15.78,0,0,0,.45-4.12l0-1c0-.11.06-.43.22-.48a.17.17,0,0,1,.2.09c.8,1.54,1.61,2.88,2.29,4l0,.08c.39.63.73,1.17,1.39,1.13a2.33,2.33,0,0,0,1.61-1.22,7.42,7.42,0,0,0,.4-2.51,9.42,9.42,0,0,0-1.31-4.78l-.1-.16c-.42-.65-.89-1.39-1.6-1.57a.12.12,0,0,0-.12,0,.79.79,0,0,0,0,.59l.47,1.76a20.93,20.93,0,0,1,.83,3.93l0,.23a1.52,1.52,0,0,1-.15,1.15L85.5,18l-.09-.11A24.92,24.92,0,0,1,83.86,15.64Z" transform="translate(0 0)"/><path id="path26" class="cls-1" d="M89.55,21.46c2,.39,3.7-.71,5.37-1.95.07-.07,0-.21,0-.29a1.31,1.31,0,0,0-.41-.68,7.23,7.23,0,0,0-2.26.18,9.43,9.43,0,0,1-1.93.23h-.13l0-.13a5.78,5.78,0,0,1,.67-1.88l0-.05H91a11.75,11.75,0,0,1,1.37-.08,4.32,4.32,0,0,0,2.18-.35.89.89,0,0,0,.07-.64.86.86,0,0,0-.09-.28,7.19,7.19,0,0,0-2.62-.15l-.29,0h-.16l.2-.65.33-1h.09a12.91,12.91,0,0,0,2.17,0l.48,0a2,2,0,0,0,1.55-.43c.1-.2-.37-.92-.72-1.19s-.45-.33-.6-.35a22.29,22.29,0,0,0-5,.49l-1.22.19a.11.11,0,0,0-.09,0c0,.06,0,.22.05.31.11.49.5.59.95.7a2.59,2.59,0,0,1,.63.21l.09,0-.25.65a5.8,5.8,0,0,1-.51,1.11l0,0-.31.07c-.31,0-.49.09-.51.36a.74.74,0,0,0,.07.32,1.08,1.08,0,0,1,.11.54v0l-.22.52a3.44,3.44,0,0,0-.44,2.15C88.59,20.62,89.06,21.35,89.55,21.46Z" transform="translate(0 0)"/><path id="path28" class="cls-1" d="M30.08,10.54s-.06,0-.14,0a4.2,4.2,0,0,0-1.65,2.7l-.08.27a15.39,15.39,0,0,0-.79,4.19,6.09,6.09,0,0,0,.35,2.1,1.87,1.87,0,0,0,1.5,1.09,4.07,4.07,0,0,0,3.62-2.64,1.41,1.41,0,0,0,0-.86l-.06,0a5.83,5.83,0,0,0-1.81.56l-1,.4-.17,0a.63.63,0,0,1-.5,0,.36.36,0,0,1-.15-.23,14.25,14.25,0,0,1,.72-4.3l.28-1a3.12,3.12,0,0,0,.1-2A.39.39,0,0,0,30.08,10.54Z" transform="translate(0 0)"/><path id="path30" class="cls-1" d="M65.68,10.19A1.72,1.72,0,0,1,66,9.83L66,9.78l.06,0c1.55.6,3.26.18,5.08-1.25C72.25,7.64,73.6,6.49,73.08,5a1.72,1.72,0,0,0-1.5-.93h-.06l0,0a2.66,2.66,0,0,0-2.6-1c-1.85.33-4.27,1.51-5,3.7a2.72,2.72,0,0,0-.06.55,2.1,2.1,0,0,0,.67,1.57l0,0V9a3.41,3.41,0,0,0,0,.55,1.08,1.08,0,0,0,.43,1C65.31,10.71,65.46,10.53,65.68,10.19Zm6-5.11c.18.06.3.15.41.45.26.7-.6,1.67-1.34,2.11a6.39,6.39,0,0,1-3.87.93h-.14l.05-.14a4.07,4.07,0,0,1,1.13-1.54C68.7,6.09,70.22,4.62,71.65,5.08Zm-6,.75.08-.1a2.76,2.76,0,0,1,1.9-.89l.31,0L67.71,5a10.37,10.37,0,0,0-2.4,2.57l-.1.15-.09-.15C64.76,7,65.27,6.33,65.67,5.83Z" transform="translate(0 0)"/><path id="path32" class="cls-1" d="M24.31,10.19c-.23.06-.26.37-.26.51v0l0,0a22.11,22.11,0,0,0-3.44,5.58l0,.06H20.5a2.72,2.72,0,0,1-1.1-.11l-.12,0,0-.12a15.23,15.23,0,0,0-.5-11.43c-1-1.92-2.7-4.17-4.75-4.73,0,0,0,0-.06,0a.12.12,0,0,0,0,.08h0l0,0c2.59,2.28,3.93,5.58,4,9.8-.24,3.91-1.3,6.77-3.35,9-1.59,1.5-3.13,2-4.57,1.46a2.39,2.39,0,0,1-1.33-1.52v-.06l0,0a13.78,13.78,0,0,0,3.43-4A6.47,6.47,0,0,0,12,8.38a1.79,1.79,0,0,0-1.28-.48A5.25,5.25,0,0,0,7.43,9.61c-2.32,2.26-1.82,6.16-1.13,9.3l0,.07-.05,0a2.46,2.46,0,0,1-2.34.4A2.92,2.92,0,0,1,2.29,17,17.27,17.27,0,0,1,5.83,5a6.31,6.31,0,0,1,1-1.05A4.41,4.41,0,0,0,7.94,2.41c0-.06,0-.08,0-.08a.66.66,0,0,0-.56,0A12.8,12.8,0,0,0,1.31,9.16C-.37,13.53-.43,16.86,1.12,19a4.27,4.27,0,0,0,4.41,1.43,4.37,4.37,0,0,0,1.16-.37l.1-.05,0,.1a5,5,0,0,0,3,2.51c2.68.68,4.93-.81,6.77-2.37a13.81,13.81,0,0,0,2.65-3.73l.06-.11.1.07a3.32,3.32,0,0,1,.7,1.17v0l-.32.89a6.28,6.28,0,0,0-.4,1.27s0,.31,0,.31c.07.63.14,1.28.76,1.49.35.07.75.07.83-.13l.22-.72a14.76,14.76,0,0,1,.91-2.45l0-.06h.07a13.53,13.53,0,0,0,2.67,0l.22-.11-.06.24A9.08,9.08,0,0,0,25.21,20a2.14,2.14,0,0,0,1.42,1.36h0a.35.35,0,0,0,.06-.23A26.52,26.52,0,0,0,25,10.3C24.9,10.09,24.57,10.12,24.31,10.19Zm-16,7.07,0-.21a10.11,10.11,0,0,1-.09-2.59l0-.53.15-1a7.85,7.85,0,0,1,1.38-4,.44.44,0,0,1,.3-.13.48.48,0,0,1,.32.21h0a3.44,3.44,0,0,1,.43,2.12,9.36,9.36,0,0,1-2.32,6ZM24.82,16.1a2.83,2.83,0,0,1-1.6.21.2.2,0,0,1-.19-.09c-.06-.09,0-.21,0-.3a16.84,16.84,0,0,1,1.11-2.27l.1-.18.09.19a5.44,5.44,0,0,1,.44,1.89l.06.51Z" transform="translate(0 0)"/><path id="path34" class="cls-1" d="M66.22,19.36c0,.79,0,1.59.84,1.76a1.61,1.61,0,0,0,1-.11.19.19,0,0,0,.08-.06c0-.65.07-1.32.07-2,0-1.76-.14-3.58-.28-5.37l-.07-.79a1.34,1.34,0,0,0-.83-1c-.26,0-.37.45-.44.69v0A38.23,38.23,0,0,0,66.2,18c0,.35,0,.7,0,1.05Z" transform="translate(0 0)"/></svg>