<svg xmlns="http://www.w3.org/2000/svg" width="333" height="139"><path d="M197.7 84.9V5c0-2.8-2.2-5-5-5H150c-2.8 0-5 2.2-5 5v79.9c0 4.2.6 8.1 1.9 11.7 1.3 3.6 3.1 6.7 5.5 9.3 2.3 2.6 5.2 4.7 8.4 6.1 3.3 1.5 6.8 2.2 10.6 2.2s7.3-.7 10.5-2.2c3.2-1.5 6-3.5 8.3-6.1 2.3-2.6 4.2-5.7 5.5-9.3 1.3-3.6 2-7.5 2-11.7zm133.1 2.8c-1.5-3.9-3.6-7.4-6.2-10.3-2.7-2.9-6-5.4-9.7-7.3-3.8-1.9-8-3.2-12.6-3.8V66c7.3-2.2 13.1-5.9 17.6-11.1 4.4-5.2 6.6-11.7 6.6-19.5 0-7.6-1.5-13.7-4.6-18.3-3.1-4.6-7-8.1-11.9-10.7-4.9-2.6-10.4-4.2-16.6-5.1C287.3.4 281.1 0 275.1 0h-43.5c-2.8 0-5 2.2-5 5v81c0 8-1.2 15.4-3.5 22.2-2.3 6.8-5.8 12.6-10.5 17.6-4.6 5-10.4 8.9-17.3 11.7-1.4.6-2.8 1-4.3 1.5h89.2c6.2 0 12.5-.7 18.7-2 6.3-1.3 11.9-3.5 17-6.5 5-3 9.1-7 12.3-11.9 3.2-4.9 4.8-11 4.8-18.3 0-4.4-.7-8.6-2.2-12.6zm-72.6-61.8h16.5c2.4 0 4.8.2 7.3.7 2.5.5 4.8 1.2 6.7 2.3 2 1 3.6 2.5 4.9 4.4 1.2 1.9 1.9 4.3 1.9 7.2 0 2.7-.6 5.1-1.7 7.1s-2.6 3.5-4.5 4.7c-1.9 1.2-3.9 2-6.3 2.6-2.3.5-4.6.8-7 .8h-17.9V25.9zm42 78.5c-1.3 2.1-2.9 3.8-4.9 5.1-2 1.3-4.2 2.2-6.7 2.7-2.4.5-4.9.8-7.2.8h-23.2V81.5h18.9c2.5 0 5.2.2 8.1.6 2.9.4 5.6 1.1 8.1 2.2s4.6 2.6 6.2 4.6c1.7 2 2.5 4.7 2.5 7.9.1 3-.6 5.5-1.8 7.6zM151.6 139c-1.5-.4-2.9-.9-4.3-1.5-6.9-2.8-12.7-6.7-17.3-11.7-4.6-5-8.1-10.8-10.5-17.6-2.3-6.8-3.5-14.2-3.5-22.2V5c0-2.8-2.2-5-5-5H89.5c-2.8 0-5 2.2-5 5v46.8H31.8V5c0-2.8-2.2-5-5-5H5C2.2 0 0 2.2 0 5v129c0 2.8 2.2 5 5 5h21.8c2.8 0 5-2.2 5-5V78.9h52.7V134c0 2.8 2.2 5 5 5h62.1z" fill="#FFF"/></svg>