<?xml version="1.0" encoding="utf-8"?>
<!-- Generator: Adobe Illustrator 21.0.2, SVG Export Plug-In . SVG Version: 6.00 Build 0)  -->
<svg version="1.1" xmlns="http://www.w3.org/2000/svg" xmlns:xlink="http://www.w3.org/1999/xlink" x="0px" y="0px"
	 viewBox="0 0 216.9 94.6" style="enable-background:new 0 0 216.9 94.6;" xml:space="preserve">
<style type="text/css">
	.st0{fill:#FFFFFF;}
</style>

	<defs>
		<linearGradient id="gradient" x1="0%" y1="0%" x2="100%" y2="0%">
        	<stop offset="0%" stop-color="white"/>
			<stop offset="90%" stop-color="white" />
			<stop offset="100%" stop-color="white" stop-opacity="0"/>
		</linearGradient>
  </defs>

<g id="Inside_Disney_Logo">
	<g id="logo02">
		<path class="st0" d="M11.7,38.4c-5.1,0.4-5.4,0.8-5.9,5.9c-0.4-5.1-0.8-5.5-5.9-5.9c5.1-0.4,5.4-0.8,5.9-5.9
			C6.3,37.6,6.7,38,11.7,38.4"/>
		<path class="st0" d="M84.8,59.1c-5.9,0.4-13.3,1.5-13.3,3.5c0.1,2.2,5.6,6.3,12.8,9C84.7,67.3,84.7,62.6,84.8,59.1 M63.3,37
			c-2,0.1-3.4-0.8-3.4-2c0-0.9,1.9-3.5,3-4c0.8-0.3,4.6-1.7,11-2c2.4-0.1,6.4,0.2,9.8,0.7c19.8,2.9,40.4,18,40.8,31.3
			c0.3,9.1-7.6,17.6-22.9,18.1c-4.1,0.1-7.8-0.4-11.2-1.3c-0.1,2.2,0.1,3.4-3,3.5c-2,0.1-2.7-3.1-3-5.6C75.2,71.6,69.6,65,69.5,62.4
			c-0.1-3.9,7-7.2,15.3-8.5c0.1-3.3,0.7-11.5,2.4-11.6c0.7,0,2.1,1.6,2.7,4.1c0.5,2.2,0.5,6.3,0.6,7h0.7c11.6-0.4,18.7,3.3,18.8,7.7
			c0.1,3.3-2.9,5.1-4.4,5.1c-1.6,0.1-3.4-0.9-3.4-1.3c0-0.9,3.3-1.2,3.3-2.6c-0.1-2.2-9.3-3.3-15.1-3.3c0,2,0,4.3,0,5.9
			c0.1,1.5,0.1,5.4,0.2,8.7c2.6,0.6,5.3,0.9,7.9,0.8c6.2-0.2,20.3-2.5,20-13C118,46.5,88.8,32.9,73.1,33.4c-6.2,0.2-9.8,0.9-9.8,1.4
			c0,0.4,3,0.6,3,1.4C66.1,36.8,64.4,37,63.3,37"/>
		<path class="st0" d="M128.9,53.2c1,0,2.5,2.4,2.5,3.9c0.1,1.5,0.4,9.4,0.5,11.7c0.1,2.2,0,4.5-0.1,5.5c-0.1,1-0.5,1.5-2.2,1.6
			c-1.7,0.1-2.5-1-2.7-2.5c-0.1-1.5-0.3-5.9-0.2-8c0.1-2.2,0.1-6.3,0.4-8.9C127.4,53.8,128.1,53.2,128.9,53.2"/>
		<path class="st0" d="M139,35.4c-0.3-0.7-1.2-2.2-4.7-2.1c-7.5,0.2-13.2,5.8-13.1,10.1c0.1,1.4,0.7,2.7,1.7,3.7
			c-0.3,0.7-0.3,1.2-0.3,1.4c0,0.8,1.2,2.7,2,2.7c0.7,0,1.2-0.7,2-1.9c1.2,0.5,2.5,0.7,3.4,0.7c7-0.2,13.5-6.8,13.3-11.1
			C143.3,37.2,142,35.3,139,35.4 M128.4,45.9c0.9-1.2,5.4-7.2,10-7.4c1.4-0.1,1.7,0.8,1.7,1.7c0.1,1.4-2.6,5.7-8.5,5.9
			C130.3,46.2,129.2,46,128.4,45.9 M124.7,43.9c-0.1-0.1-0.2-0.4-0.2-0.9c0-0.9,1.7-4.7,5.9-5c-1.1,0.7-2.2,1.7-3.3,2.9
			C126.1,42,125.3,43.1,124.7,43.9"/>
		<path class="st0" d="M147.3,52.8c4.1-0.1,9.3,0.4,9.3,1.7c0,0.8-0.4,2.4-2.6,2.6c-2.6,0.3-15.7,0.8-15.6,2.5c0,0.9,4,1,7.6,1.2
			c3.7,0.2,9.7,0.4,9.8,6.4c0.1,4.8-1.7,5.7-2.5,6.2c-1,0.5-4.5,1.8-7.1,1.9c-8,0.2-11.2-4.3-11.3-6.7c-0.1-2.1,2-3.9,5.6-4
			c3.5-0.1,9.1,1.2,9.1,2.7c0,1.2-2.4,1.8-3.5,1.8c-4.8,0.1-4.6-1.8-7.5-1.7c-1.6,0.1-3.8,3.5,4.2,3.2c7.2-0.2,9.3-2.5,9.3-3.8
			c-0.1-1.7-5.1-2.5-8.1-2.7c-3-0.1-7.4-0.1-8.9-1.1c-1.5-0.9-1.3-3.1-0.8-4.9C135.5,54.2,143.1,52.9,147.3,52.8"/>
		<path class="st0" d="M161.4,54.3c2.8-0.1,8.6,12.6,9.6,12.5c1,0,0.2-3-0.4-6.2c-1.4-7.3-3.6-11.1-1.5-11.1
			c1.5-0.1,6.5,4.8,6.8,14.2c0.1,4.3-0.5,10.1-4.4,10.2c-3.8,0.1-8-11.7-9-11.6c-0.5,0-0.6,7.3-0.7,9.6c-0.1,2.2-0.9,3.4-2.1,3.4
			c-1.9,0.1-2.7-1.7-2.7-5.2C156.7,66.4,157.9,54.4,161.4,54.3"/>
		<path class="st0" d="M189.7,61.1c1.3-0.1,2.5-0.3,2.4,1.4c-0.1,1.7-0.2,2.4-1.6,2.5l-7.1,0.2c-0.2,0.8-0.9,2.8-1.1,3.7
			c-0.4,1.1,0.7,0.9,2.1,0.4c1.4-0.4,5.1-1.1,6.7-1.2s2.7,2.4,1.8,3.3s-5.6,4.8-10.6,5.1c-2.2,0.1-5.1-1.8-5.1-5.1
			c-0.1-1.8,0.7-4.1,1.4-6c-0.1-0.1-0.3-0.4-0.4-0.9c-0.2-1.2-0.8-2.5,1.2-2.7c0.1,0,0.4-0.1,0.6-0.1l1.7-3.4
			c-0.7-0.1-1.2-0.2-1.7-0.4c-1.2-0.6-2.2-2.1-2.2-2.7c-0.1-1.4,10.7-2.3,13.2-2.4c2.7-0.1,3.4,0.4,4.3,1.7c0.9,1.2,1.2,2.1,1.2,2.4
			c0,0.4-0.3,1.2-3.5,1.2c-1.7,0.1-4.3,0.4-6.9,0.4l-1.1,3C187.3,61.3,189.7,61.1,189.7,61.1"/>
		<path class="st0" d="M197,71.3c-2.9,5.7-4.8,11.8-4.7,16.3c0.1,5.1,3.3,7,4.3,7s1-1.5,1.2-2.7c0.9-6.4,2.7-12.1,4.6-16.9
			c0.7,0.2,1.5,0.3,2.2,0.3c5.9-0.1,12.7-7.2,12.4-14.6c-0.1-3.9-1.6-6.7-4.1-6.7c-3.7,0.1-9,5.7-13.2,12.7
			c-0.4-2.8,1.9-7.2,3.8-10.3c1.4-2.2,1.1-4.7,0.6-4.7c-0.8,0-8.3,6.4-8.1,15.2C195.8,68.7,196.2,70.2,197,71.3 M204.8,69.5
			c3.5-6.9,7.2-10.9,8.5-10.9C215.5,58.6,213.6,68.7,204.8,69.5"/>
		<rect x="4.1" y="46.6" class="st0" width="3.5" height="11.4"/>
		<path class="st0" d="M9.7,46.6h3.4v1.5h0.1c0.1-0.2,0.3-0.4,0.4-0.7c0.2-0.2,0.4-0.4,0.7-0.6c0.3-0.1,0.6-0.3,0.9-0.4
			c0.4-0.1,0.7-0.1,1.2-0.1c0.9,0,1.6,0.1,2.2,0.4c0.6,0.3,0.9,0.7,1.3,1.2c0.3,0.5,0.5,1.1,0.7,1.7c0.1,0.7,0.1,1.4,0.1,2.2v6.3
			h-3.5v-5.6c0-0.4,0-0.7,0-1s-0.1-0.7-0.2-0.9c-0.1-0.3-0.3-0.5-0.5-0.7s-0.6-0.3-1-0.3c-0.4,0-0.8,0.1-1.1,0.2
			c-0.3,0.1-0.5,0.4-0.7,0.7c-0.1,0.3-0.2,0.6-0.3,0.9c-0.1,0.4-0.1,0.7-0.1,1.1v5.7H9.8V46.6H9.7z"/>
		<path class="st0" d="M29.8,49.7c-0.5-0.7-1.2-0.9-2-0.9c-0.3,0-0.6,0.1-0.9,0.2c-0.3,0.1-0.4,0.4-0.4,0.7c0,0.3,0.1,0.5,0.4,0.7
			c0.3,0.1,0.7,0.2,1.1,0.4c0.4,0.1,0.9,0.2,1.4,0.4c0.5,0.1,1,0.3,1.4,0.6c0.4,0.2,0.8,0.6,1.1,1c0.3,0.4,0.4,1,0.4,1.7
			s-0.1,1.4-0.5,1.8c-0.3,0.5-0.7,0.9-1.2,1.2c-0.5,0.3-1.1,0.5-1.7,0.6c-0.7,0.1-1.2,0.1-1.9,0.1c-0.8,0-1.6-0.1-2.4-0.4
			s-1.5-0.7-2.1-1.2l2.2-2.4c0.4,0.4,0.7,0.7,1.1,0.9c0.4,0.2,0.9,0.3,1.4,0.3c0.4,0,0.8-0.1,1.1-0.1c0.4-0.1,0.5-0.4,0.5-0.7
			s-0.1-0.5-0.4-0.7c-0.3-0.1-0.7-0.3-1.1-0.4c-0.4-0.1-0.9-0.2-1.4-0.4c-0.5-0.1-1-0.3-1.4-0.5s-0.8-0.6-1.1-1
			c-0.3-0.4-0.4-1-0.4-1.7c0-0.7,0.1-1.2,0.4-1.7c0.3-0.5,0.7-0.9,1.1-1.2c0.4-0.3,0.9-0.6,1.5-0.7c0.6-0.1,1.2-0.2,1.7-0.2
			c0.7,0,1.5,0.1,2.3,0.4c0.8,0.2,1.4,0.6,2,1.2L29.8,49.7z"/>
		<path class="st0" d="M34.2,43.1c0-0.6,0.2-1,0.6-1.4c0.4-0.4,0.9-0.6,1.4-0.6c0.6,0,1,0.2,1.4,0.6c0.4,0.4,0.6,0.9,0.6,1.4
			c0,0.6-0.2,1-0.6,1.4c-0.4,0.4-0.9,0.6-1.4,0.6c-0.6,0-1-0.2-1.4-0.6C34.4,44.1,34.2,43.6,34.2,43.1 M34.4,46.6H38V58h-3.5
			L34.4,46.6L34.4,46.6z"/>
		<path class="st0" d="M53,57.7h-3.3v-1.5h-0.1c-0.1,0.2-0.3,0.4-0.6,0.7c-0.2,0.2-0.5,0.4-0.8,0.6c-0.3,0.1-0.7,0.3-1,0.4
			C46.9,58,46.5,58,46.1,58c-0.9,0-1.6-0.1-2.3-0.4c-0.7-0.3-1.3-0.7-1.8-1.2s-0.9-1.2-1.2-1.9c-0.3-0.7-0.4-1.5-0.4-2.4
			c0-0.8,0.1-1.6,0.4-2.3s0.6-1.4,1-2c0.4-0.6,1-1,1.7-1.4c0.7-0.4,1.4-0.5,2.2-0.5c0.7,0,1.4,0.1,2,0.4c0.6,0.2,1.2,0.7,1.6,1.2
			h0.1v-7.6h3.5v17.9H53z M49.7,52c0-0.9-0.2-1.6-0.7-2.1c-0.5-0.5-1.2-0.8-2.1-0.8c-0.9,0-1.6,0.3-2.1,0.8s-0.7,1.2-0.7,2.1
			s0.2,1.6,0.7,2.1c0.5,0.5,1.2,0.8,2.1,0.8c0.9,0,1.6-0.3,2.1-0.8S49.7,52.9,49.7,52"/>
		<path class="st0" d="M66.1,55.8c-0.6,0.7-1.3,1.3-2.2,1.7C63,57.8,62.2,58,61.2,58c-0.9,0-1.7-0.1-2.5-0.4c-0.8-0.3-1.4-0.7-2-1.2
			c-0.6-0.5-1-1.2-1.4-1.9c-0.4-0.7-0.5-1.6-0.5-2.5c0-0.9,0.1-1.7,0.5-2.5c0.4-0.7,0.8-1.4,1.4-1.9c0.6-0.5,1.2-0.9,2-1.2
			c0.8-0.3,1.6-0.4,2.5-0.4c0.8,0,1.6,0.1,2.2,0.4c0.7,0.3,1.2,0.7,1.7,1.2c0.4,0.5,0.8,1.2,1.1,1.9c0.2,0.7,0.4,1.6,0.4,2.5v1.1
			h-8.2c0.1,0.7,0.4,1.2,0.9,1.6c0.5,0.4,1.1,0.6,1.7,0.6c0.6,0,1.1-0.1,1.4-0.4c0.4-0.3,0.7-0.6,1-1L66.1,55.8z M63.1,50.8
			c0-0.6-0.1-1.1-0.6-1.5c-0.4-0.4-0.9-0.7-1.6-0.7c-0.4,0-0.7,0.1-1,0.2c-0.3,0.1-0.6,0.3-0.8,0.5c-0.2,0.2-0.4,0.4-0.5,0.7
			c-0.1,0.3-0.2,0.5-0.2,0.8H63.1z"/>
		<path fill="url(#gradient)" class="st1" d="M214.7,50.9C190,21.9,154.9,4.7,116,2.6c-39-2.2-78.5,9.7-109,35.7l-0.1-0.3c31-26.3,69.8-39.7,109.3-37.5
			c39.6,2.2,75.1,19.5,100.1,49L214.7,50.9z" />
	</g>
</g>
<g id="Layer_2">
</g>
</svg>
