<?xml version="1.0" encoding="utf-8"?>
<!-- Generator: Adobe Illustrator 20.1.0, SVG Export Plug-In . SVG Version: 6.00 Build 0)  -->
<svg version="1.1" id="Layer_1" xmlns="http://www.w3.org/2000/svg" xmlns:xlink="http://www.w3.org/1999/xlink" x="0px" y="0px"
	 viewBox="0 0 115 115" style="enable-background:new 0 0 115 115;" xml:space="preserve">
<style type="text/css">
	.st0{fill:#FFFFFF;}
</style>
<g>
	<path class="st0" d="M35.7,44.9c-2.1,0-5.7,2.4-5.7,7.7h53.7c0.7-7.9-4.8-7.7-4.8-7.7S36.8,44.9,35.7,44.9L35.7,44.9z M29.5,55.3
		c0,0,0,1.6,0,2.5c0,1.7,1.7,3.7,4.2,3.7c1.6,0,13,0,13,0l-0.4,3.2H28.7L27.8,72c0,0,18.8,0,20.6,0c1.7,0,5.8-1.4,6.5-5.5
		c0,0,0.8-6.8,0.8-7c0.1-1.3-0.7-4.1-4.3-4.1C49.6,55.3,29.5,55.3,29.5,55.3L29.5,55.3z M57.6,55.3h25.8l-0.6,2.9
		c0,0-0.6,3.3-4.6,3.3s-12.6,0-12.6,0L64.4,72h-8.7L57.6,55.3L57.6,55.3z M84.7,52.5h26.4c1.2-5.1-1.3-7.7-3.9-7.7
		c-3.1,0-10.5,0-21.6,0L84.7,52.5L84.7,52.5z M91.2,72h-8.7l1.9-16.6h8.8L91.2,72L91.2,72z M108.7,72H100l1.9-16.6h8.8L108.7,72
		L108.7,72z M4.7,55.3h23.6l-0.8,6.2H13l-0.5,3.2h14.6L26.3,72H2.7L4.7,55.3L4.7,55.3z M5.9,44.9h23.6l-1,7.7H5.1L5.9,44.9L5.9,44.9
		z"/>
</g>
</svg>
