<svg id="svg2" xmlns="http://www.w3.org/2000/svg" viewBox="0 0 198.39 76.49"><defs><style>.cls-1,.cls-2{fill:#fff;}.cls-2{fill-opacity:0;}</style></defs><title>Disney_-_abc_TV_group_logo_white</title><g id="g6"><path id="path20" class="cls-1" d="M138.71,23.74l.06,15.09h1.65l.06-15.09,0-15.07h-1.86Z" transform="translate(-1.05 0.09)"/><path id="path32" class="cls-1" d="M42.92,51.36l-1,.17-.48.11V71.32h2.9V51.22l-.45,0A8.48,8.48,0,0,0,42.92,51.36Z" transform="translate(-1.05 0.09)"/><path id="path34" class="cls-1" d="M132.57,52.13c-4,1.35-5.89,4.53-5.89,9.67a12,12,0,0,0,1.14,5.82,10.45,10.45,0,0,0,3.33,3.24c2.52,1.29,7.34,1.12,10.2-.38l.85-.42V60.74H134.7l.14,1.21a6.93,6.93,0,0,0,.25,1.38,5.59,5.59,0,0,0,1.9.17,4.48,4.48,0,0,1,2,.25c.35.36.33,4.06,0,4.36a6.26,6.26,0,0,1-1.51.57,6,6,0,0,1-4.32-.4,5.17,5.17,0,0,1-2.71-2.77c-1.51-3.39-.89-7.47,1.45-9.57,1.8-1.63,4.34-1.78,7.05-.4a8.82,8.82,0,0,0,1.82.76c.43,0,.7-2.62.31-3.11-.68-.87-2-1.21-4.92-1.27A13.09,13.09,0,0,0,132.57,52.13Z" transform="translate(-1.05 0.09)"/><path id="path36" class="cls-1" d="M16,53.44v1.38h2.65a7.64,7.64,0,0,1,2.9.25c.19.19.25,2.31.25,8.25v8h2.9l0-8.21.06-8.19,3-.06,2.94-.06v-.57a12.57,12.57,0,0,0-.12-1.38l-.14-.78H16Z" transform="translate(-1.05 0.09)"/><path id="path38" class="cls-1" d="M71.87,52.74a2,2,0,0,0-.41,1.33c0,1.16.45,1.59,1.72,1.59.77,0,1-.11,1.36-.55a1.8,1.8,0,0,0,0-2.37A2,2,0,0,0,71.87,52.74Z" transform="translate(-1.05 0.09)"/><path id="path40" class="cls-1" d="M88.85,52.82a1.69,1.69,0,0,0,1.39,2.84A1.54,1.54,0,0,0,91.93,54c0-1.21-.45-1.69-1.65-1.69C89.43,52.27,89.2,52.36,88.85,52.82Z" transform="translate(-1.05 0.09)"/><path id="path42" class="cls-1" d="M32.17,57.8A5.87,5.87,0,0,0,28,62.39a14.57,14.57,0,0,0,.33,5.9,6.74,6.74,0,0,0,3.37,3.17,14,14,0,0,0,4.9-.15,10.26,10.26,0,0,0,1.74-.78l.91-.53-.14-1.29a5.41,5.41,0,0,0-.25-1.4c-.06-.06-.35,0-.66.25-3.39,2.2-5.69,2-6.95-.53-.91-1.9-1-1.86,3.81-1.86H39.2v-1.4c0-2.26-.33-3.2-1.63-4.55a3.61,3.61,0,0,0-2.25-1.44A6.32,6.32,0,0,0,32.17,57.8Zm2.71,2.65c.62.32,1.51,1.88,1.3,2.24a17.5,17.5,0,0,1-5.15,0c-.19-.3.41-1.35,1.14-2A2.35,2.35,0,0,1,34.88,60.44Z" transform="translate(-1.05 0.09)"/><path id="path44" class="cls-1" d="M50.74,57.84a7.27,7.27,0,0,0-1.68.78,6.94,6.94,0,0,0-2.19,3.28A16.9,16.9,0,0,0,47,67.85a5.61,5.61,0,0,0,2.65,3.24,8.84,8.84,0,0,0,8.07-.93c.33-.23.37-.47.25-1.48-.08-.66-.27-1.25-.41-1.29s-.66.17-1.16.51c-1.88,1.27-3.37,1.5-4.92.8a2.62,2.62,0,0,1-1.36-1.4,5.3,5.3,0,0,1-.54-1.48l-.08-.53,4.32-.06,4.32,0L58,63.53a14.82,14.82,0,0,0-.35-2.39,6.47,6.47,0,0,0-2.54-3A7.81,7.81,0,0,0,50.74,57.84Zm2.75,2.58a3.2,3.2,0,0,1,1.43,2.05c0,.34-.25.38-2.48.38-2.77,0-3-.11-2.38-1.27A2.53,2.53,0,0,1,53.49,60.42Z" transform="translate(-1.05 0.09)"/><path id="path46" class="cls-1" d="M80.14,57.76a3.82,3.82,0,0,0-3.21,4.59c.19,1.63,1.24,2.58,3.62,3.26s3.27,1.14,3.43,1.82-.56,1.5-1.53,1.69a7.31,7.31,0,0,1-3.91-.89,5.3,5.3,0,0,0-1.24-.51c-.14,0-.31.36-.37.78s-.19,1.06-.25,1.4c-.08.53,0,.61.81,1a10.51,10.51,0,0,0,7,.3c1.61-.7,2.27-1.86,2.27-4a2.43,2.43,0,0,0-.85-2.33c-.79-.87-1.1-1-3.21-1.71A13.45,13.45,0,0,1,80,62.09c-.7-.72-.1-1.69,1.18-1.9a5.34,5.34,0,0,1,2.3.42,15.42,15.42,0,0,0,1.88.55c.31,0,.68-2.05.48-2.6S81.7,57.42,80.14,57.76Z" transform="translate(-1.05 0.09)"/><path id="path48" class="cls-1" d="M98.18,57.78a5.87,5.87,0,0,0-4.09,3.89A14.08,14.08,0,0,0,94,67.62c1.1,3.39,4.28,4.85,8.09,3.66a5.72,5.72,0,0,0,3-2.79c.52-1,.56-1.25.56-3.94s0-2.9-.56-3.81a6.23,6.23,0,0,0-2.67-2.62A9.63,9.63,0,0,0,98.18,57.78Zm2.65,2.79c3.16,1.65,2.75,7.87-.58,8.55a2.62,2.62,0,0,1-1.57-.32c-.83-.36-1.05-.59-1.53-1.65-1.22-2.67-.43-6,1.61-6.81C99.52,60,99.83,60.06,100.82,60.57Z" transform="translate(-1.05 0.09)"/><path id="path50" class="cls-1" d="M113.4,57.84a8.48,8.48,0,0,0-1.82.87l-.85.57-.25-.63c-.23-.61-.29-.66-1.32-.66h-1.1V71.32h2.69v-9l.79-.63c1.53-1.27,2.44-1.57,3.41-1.1s1,1,1,6v4.76h2.92l-.06-5.78c-.06-5.63-.06-5.78-.54-6.46a3.65,3.65,0,0,0-1.08-1A6.23,6.23,0,0,0,113.4,57.84Z" transform="translate(-1.05 0.09)"/><path id="path52" class="cls-1" d="M151.14,57.78a6.59,6.59,0,0,0-2.83,1.74L148,60l-.1-.51a8.94,8.94,0,0,1-.17-.93c-.06-.36-.25-.42-1.26-.49L145.29,58V71.32H148V63.77l.6-.85a5.83,5.83,0,0,1,3-2.22c1.16-.38,1.26-.63,1-2.22C152.48,57.5,152.4,57.46,151.14,57.78Z" transform="translate(-1.05 0.09)"/><path id="path54" class="cls-1" d="M158,57.78c-2.42.53-3.95,2.37-4.43,5.31s.14,5.38,1.7,7c1.22,1.25,2.09,1.57,4.22,1.57a5.5,5.5,0,0,0,5.69-3.83,13.06,13.06,0,0,0,.1-6.14,6.33,6.33,0,0,0-2.85-3.43A8.59,8.59,0,0,0,158,57.78Zm2.63,2.79c1.92,1,2.75,4.32,1.65,6.6-.83,1.76-2.21,2.37-3.78,1.65-2.79-1.27-2.9-6.94-.14-8.34C159.25,60,159.49,60,160.59,60.57Z" transform="translate(-1.05 0.09)"/><path id="path56" class="cls-1" d="M186.38,57.78a6.47,6.47,0,0,0-1.55.74c-.93.66-1,.66-1.16,0-.12-.49-.23-.53-1.26-.53h-1.14V76.4h.58a11.74,11.74,0,0,0,1.34-.13l.77-.15v-4.7h2.54c2.48,0,2.58,0,3.58-.63a6.93,6.93,0,0,0,2.61-3.56,18.45,18.45,0,0,0,0-6,6.66,6.66,0,0,0-2.54-3.13A7.29,7.29,0,0,0,186.38,57.78Zm2.07,3c2,1.27,2.25,5.54.37,7.41-.7.7-.83.74-2.13.74a5.23,5.23,0,0,1-2-.32l-.62-.32L184,65.42l-.06-2.86.79-.83C186.07,60.32,187.27,60,188.45,60.74Z" transform="translate(-1.05 0.09)"/><path id="path58" class="cls-1" d="M59.26,58c-.39.06-.74.28-.77.44s1,3.17,2.17,6.67l2.21,6.35,1.36.06c1.16,0,1.41,0,1.53-.32.48-1.25,4.45-12.83,4.45-13S69.58,58,68.77,58H67.34L66,62.26c-.74,2.37-1.41,4.44-1.47,4.61a24.17,24.17,0,0,1-1.61-4.34l-1.49-4.66-.7,0A6.67,6.67,0,0,0,59.26,58Z" transform="translate(-1.05 0.09)"/><path id="path60" class="cls-1" d="M71.87,64.65v6.67h2.69V58H71.87Z" transform="translate(-1.05 0.09)"/><path id="path62" class="cls-1" d="M88.83,64.65v6.67h2.69V58H88.83Z" transform="translate(-1.05 0.09)"/><path id="path64" class="cls-1" d="M167.66,63.74c.06,5.59.08,5.8.52,6.43.83,1.19,1.43,1.46,3.27,1.44a5.41,5.41,0,0,0,3.89-1.31c.33-.3.37-.28.6.34s.31.68,1.34.68h1.1V58h-2.69v9l-.77.63c-1.55,1.27-2.46,1.57-3.43,1.1s-1-1-1-6V58H167.6Z" transform="translate(-1.05 0.09)"/></g><g id="Layer_1"><g id="g10326"><path id="path10342" class="cls-1" d="M12.21.89C7.48,1,3.64,1.64,2.78,2.58S1.08,4.12,1.05,5.25s1.23,1.2,2,1.2,1.47-.06,1.45-.53c0-.64-1-.52-1-1.16s3.92-.93,5.88-.93c16.83-.06,36.19,11.93,36.22,22.1,0,7.91-10,9.68-15.49,9.69a29.86,29.86,0,0,1-5.67-.55c-.07-2.53-.22-7.8-.3-11.14l1.75,0c4.07,0,9.43,1.46,9.45,2.44s-1.42,1.42-1.42,2.22c0,.59,1.32.5,2.46.58.21,0,2.52-1.31,2.5-3.4,0-2.77-3.36-6-14.32-6l-.47,0c-.1-3.11-.55-8-2.27-8-1.42,0-1.84,5.41-2,8.4-6.14.94-11.61,3.52-11.59,6,0,2.07,4.4,7.3,11.5,10.47.12,2.35.56,4,2.58,3.95,1.48,0,2-1.11,2.13-2.29a29,29,0,0,0,7.43.94c10.32,0,18.6-5.7,18.57-13.47C50.43,15.37,30,.37,12.2.88ZM9.45,26.83c0-1.81,5.37-2.5,10.33-2.76,0,2.85-.07,6.95-.07,9.68C13.61,31.54,9.45,28,9.45,26.83Z" transform="translate(-1.05 0.09)"/><path id="path10344" class="cls-1" d="M54.16,20c-1.75,0-1.79,7.24-1.84,9.87-.12,6,.74,6.75,2.29,6.74,1.39,0,1.88-.17,1.75-5.21C56.16,21.87,55.52,20,54.16,20Z" transform="translate(-1.05 0.09)"/><path id="path10346" class="cls-1" d="M55.06,17.27c3.86,0,10-4.53,10-8.26,0-1.69-.84-2.54-3-2.86A5.76,5.76,0,0,0,58,4.31c-6,0-9.91,4.94-9.91,7.62a5.06,5.06,0,0,0,1.17,3.23c0,2.13.53,2.7,1.21,2.7a1.64,1.64,0,0,0,1.5-1A9.87,9.87,0,0,0,55.06,17.27Zm.4-3a7.61,7.61,0,0,1-2.28-.3C54.89,12,59,8.21,61,8.21A1.44,1.44,0,0,1,62.6,9.7c0,2.51-5,4.56-7.14,4.56Zm.28-6.66a20.08,20.08,0,0,0-5,4.25,2.23,2.23,0,0,1-.09-.59C50.64,10,52.35,8.18,55.74,7.58Z" transform="translate(-1.05 0.09)"/><path id="path10348" class="cls-1" d="M75.05,21.31c0-1.66-4.19-1.65-6.53-1.63-1.76,0-10.7.21-10.69,5.35,0,3.47,5,2.64,8.32,3,2.71.27,6,1.17,6,2.09,0,2-7.15,2.85-8.63,2.86-3,0-3.11-.9-3.11-1.37a1.48,1.48,0,0,1,1.64-1.23c1.14,0,3.48,1.49,5.09,1.49s3-.75,3-1.49c0-1.36-5.36-2-7-2s-4.23.75-4.23,3.43c0,1.39,2.22,4.69,8.45,4.66S75,32.82,75,31c0-4.51-4.15-5-7.76-5.33-2.69-.23-5.63-.37-5.61-1,0-2.06,13.43-.53,13.41-3.34Z" transform="translate(-1.05 0.09)"/><path id="path10350" class="cls-1" d="M85.25,17.5c-.5,0-.59.55-.59,1.14,0,1.75,2.37,7.89,2.37,10.22,0,.49,0,1.36-.4,1.46-.56.17-5.51-9.11-7.55-9.25s-3.24,9.1-3.23,11.38.4,3.81,2,3.81C80.32,36.26,79,27,80,27c.73,0,4.71,8.46,6.91,8.46,2.4,0,3.82-3.63,3.81-6,0-5.38-3.49-12-5.51-12Z" transform="translate(-1.05 0.09)"/><path id="path10352" class="cls-1" d="M101.84,31.83c-.86,0-5.64,1.1-6,.79s.27-3.14.87-3.34,4.34-.14,4.95-.18c1.73-.09,1.41-2.51.34-2.61-.55,0-3.94-.06-4.12-.38s0-1.92.43-2.09c.77-.32,5.91-.47,6.29-.58a1.56,1.56,0,0,0,1.26-1.07c.16-.56-1.78-2.86-4.19-2.61-4.12.47-9.46.44-9.46,1.83s2.5,1.81,2.56,2.18a8.28,8.28,0,0,1-.46,2.12c-.15.46-1.94.59-2.06,1.86,0,.29.44.75.34,1.1A27.33,27.33,0,0,0,91.52,33c0,1.4,1,4.54,3.82,4.45,4.41-.15,8.38-3.32,8.44-3.89.1-.84-1.13-1.81-2-1.81Z" transform="translate(-1.05 0.09)"/><path id="path10354" class="cls-1" d="M119,21.05c-2.41.14-7,5.39-9.74,8.94a2.63,2.63,0,0,1-.27-1c0-1.49,2.75-6,3.26-7.12s-.07-2.71-.73-2.16c-1.3,1.08-5.42,6-5.4,10.62a8.27,8.27,0,0,0,.84,3.52c-.93,3.08-3.17,10-3.09,14.11,0,2.15,2.15,4.27,3.41,4,.49-.11.59-2.93,1.23-4.85.89-2.74,2.31-7.77,2.81-9.92.22,0,.46,0,.71,0,5,0,10.62-5.53,10.6-10.3S119.83,21,119,21.07Zm-5.79,11.76c2-3.61,5-8.4,6.06-8.38.76,0,1.05.79,1.05,2C120.28,29.94,116.12,32.86,113.16,32.82Z" transform="translate(-1.05 0.09)"/></g></g><polygon id="polygon6" class="cls-2" points="198.39 0 198.39 51.15 147.61 51.15 147.61 0 147.61 0 198.39 0"/><path id="path8-6" class="cls-1" d="M174.05.66a24.68,24.68,0,0,0-24.54,24.82,24.54,24.54,0,1,0,49.09,0A24.68,24.68,0,0,0,174.05.66h0ZM162,32.68V30.62h0a4.94,4.94,0,0,1-3.94,2,7.51,7.51,0,0,1,0-15A7.66,7.66,0,0,1,165.72,25h0v7.6l-3.73,0h0Zm12.24.12a7.66,7.66,0,0,1-7.67-7.49h0V12.67h3.73v7.06h0a4.94,4.94,0,0,1,3.94-2,7.51,7.51,0,0,1,0,15h0Zm16-.18a7.51,7.51,0,1,1,7.28-9h-3.73a3.75,3.75,0,0,0-3.48-2.29,3.81,3.81,0,1,0,3.5,5.34h0l3.73,0h0a7.43,7.43,0,0,1-7.3,5.95h0Z" transform="translate(-1.05 0.09)"/><path id="path10-1" class="cls-1" d="M174.14,21.27a3.81,3.81,0,1,0,3.77,3.81,3.79,3.79,0,0,0-3.77-3.81Z" transform="translate(-1.05 0.09)"/><path id="path12-4" class="cls-1" d="M158.1,21.27a3.81,3.81,0,1,0,3.77,3.81,3.79,3.79,0,0,0-3.77-3.81h0Z" transform="translate(-1.05 0.09)"/></svg>