<?xml version="1.0" encoding="utf-8"?>
<!-- Generator: Adobe Illustrator 20.1.0, SVG Export Plug-In . SVG Version: 6.00 Build 0)  -->
<svg version="1.1"
	 id="svg1324" xmlns:cc="http://creativecommons.org/ns#" xmlns:dc="http://purl.org/dc/elements/1.1/" xmlns:rdf="http://www.w3.org/1999/02/22-rdf-syntax-ns#" xmlns:svg="http://www.w3.org/2000/svg"
	 xmlns="http://www.w3.org/2000/svg" xmlns:xlink="http://www.w3.org/1999/xlink" x="0px" y="0px" viewBox="0 0 150 115"
	 style="enable-background:new 0 0 150 115;" xml:space="preserve">
<style type="text/css">
	.st0{fill:#FFFFFF;}
</style>
<g>
	<g id="g408">
		<g id="g414" transform="translate(487.7391,451.6655)">
			<path id="path416" class="st0" d="M-440.3-374.4l1.6-0.8c0.7,1.4,1.8,2,3.3,2c1.5,0,2.4-0.4,2.4-1.6c0-1-0.7-1.6-2.8-2.1
				c-2.3-0.7-4.1-1.3-4.1-3.6c0-2,1.7-3.3,4-3.3s3.7,1.2,4.5,2.5l-1.4,1c-0.7-1.2-1.7-1.7-3-1.7s-2,0.4-2,1.3c0,1.2,0.8,1.4,2.9,2
				c2.3,0.7,4,1.4,4,3.6c0,2-1.7,3.4-4.5,3.4C-437.8-371.4-439.4-372.7-440.3-374.4"/>
		</g>
		<g id="g418" transform="translate(495.5677,451.2735)">
			<path id="path420" class="st0" d="M-436.9-373.4v-4.7h-1.4v-1.6h1.4v-3h2v3h2.1v1.6h-2.1v4.1c0,0.8,0.3,1.3,1.3,1.3
				c0.3,0,0.7,0,0.8-0.1v1.6c-0.1,0-1,0.1-1.4,0.1C-436.4-371.2-436.9-372-436.9-373.4"/>
		</g>
		<g id="g422" transform="translate(499.2469,451.3958)">
			<path id="path424" class="st0" d="M-435.4-373.7v-6.2h2v5.5c0,1,0.4,1.4,1.3,1.4s1.6-0.4,2.3-1.2v-5.8h2v8.6h-2v-1.2
				c-0.5,0.5-1.6,1.3-3.2,1.3C-434.3-371.3-435.4-372.1-435.4-373.7"/>
		</g>
		<g id="g426" transform="translate(505.54,452.6746)">
			<path id="path428" class="st0" d="M-432.7-376.8c0-3,1.4-4.5,3.6-4.5c0.8,0,1.8,0.4,2.4,1.2v-4.2h2v9.7c0,1,0,1.7,0.3,2.1h-2
				c-0.1-0.3-0.1-0.7-0.1-1.2c-0.5,0.7-1.4,1.3-2.8,1.3C-431.2-372.6-432.7-374-432.7-376.8 M-426.5-375.2v-3.4c-0.5-0.7-1.3-1-2-1
				c-1.4,0-2.1,1-2.1,2.9c0,1.9,0.7,2.8,2,2.8C-427.8-374.2-426.9-374.7-426.5-375.2"/>
		</g>
	</g>
	<path id="path430" class="st0" d="M82.8,68.3h2V70h-2V68.3z M82.8,71.4h1.9v8.5h-1.9V71.4L82.8,71.4z"/>
	<g id="g434">
		<g id="g440" transform="translate(514.8763,452.6859)">
			<path id="path442" class="st0" d="M-428.7-376.8c0-3.2,2-4.5,4.1-4.5c2,0,4.1,1.3,4.1,4.5c0,3.2-2.1,4.5-4.1,4.5
				C-426.6-372.5-428.7-373.9-428.7-376.8 M-422.2-376.8c0-1.6-0.7-2.8-2.1-2.8s-2.1,1-2.1,2.8c0,1.6,0.7,2.8,2.1,2.8
				C-423.1-374.2-422.2-375.1-422.2-376.8"/>
		</g>
		<g id="g444" transform="translate(521.1348,450.5333)">
			<path id="path446" class="st0" d="M-426-371.7l1.2-1.2c0.5,0.5,1.6,1,2.8,1c1,0,1.7-0.3,1.7-1c0-0.7-0.8-0.8-1.8-1.2
				c-1.4-0.3-3.2-0.7-3.2-2.8c0-1.4,1.3-2.4,3.2-2.4c1.6,0,2.5,0.4,3.4,1.2l-1,1.3c-0.5-0.5-1.6-0.8-2.4-0.8c-1.2,0-1.4,0.4-1.4,0.8
				c0,0.7,0.8,0.8,1.8,1.2c1.4,0.3,3.3,0.7,3.3,2.8c0,1.8-1.6,2.5-3.6,2.5C-423.7-370.4-425.1-370.9-426-371.7"/>
		</g>
	</g>
	<g id="g448" transform="matrix(1.25,0,0,-1.25,563.84375,445.1337)">
		<path id="path450" class="st0" d="M-448.2,310.4v8h-3v1.5h7.4v-1.5h-3v-8H-448.2z"/>
	</g>
	<g id="g454">
		<g id="g460" transform="translate(461.8598,465.7828)">
			<path id="path462" class="st0" d="M-451.4-408.7v-11.9h2v4.5c0.5-0.5,1.6-1.3,3.2-1.3c1.4,0,2.4,0.8,2.4,2.5v6.2h-2v-5.5
				c0-1-0.4-1.4-1.3-1.4s-1.6,0.4-2.3,1.2v5.8L-451.4-408.7L-451.4-408.7z"/>
		</g>
		<g id="g464" transform="translate(468.0786,468.7542)">
			<path id="path466" class="st0" d="M-448.7-415.9c0-3.3,2.3-4.5,4-4.5c1.8,0,3.7,1.2,3.7,4.6v0.4h-5.8c0.1,1.6,1,2.1,2.3,2.1
				c1.2,0,1.7-0.4,2.4-1l1,1c-0.8,1-2,1.6-3.6,1.6C-446.7-411.5-448.7-412.9-448.7-415.9 M-442.8-416.7c-0.1-1.3-0.7-2-2-2
				c-1,0-1.8,0.5-2,2H-442.8z"/>
		</g>
		<g id="g468" transform="translate(527.6423,475.9227)">
			<path id="path470" class="st0" d="M-423.2-433.3c0,0,0.3-0.4,0.5-0.7c0.4-0.5,1.3-1.4,1.8-2c0.1-0.1,0.4-0.3,0.4-0.3
				s-0.3,0-0.5,0.1c-0.4,0.1-1.2,0.5-1.4,0.8C-422.9-434.9-423.5-434-423.2-433.3C-423.2-433.5-423.2-433.3-423.2-433.3
				 M-420.1-432.6c0.8,0,1.7-0.3,2.4-0.7c0.7-0.4,1.8-1.3,1.7-2.3c0-0.3-0.3-0.5-0.4-0.7c-0.3-0.1-0.5-0.1-1,0
				c-0.3,0.1-0.4,0.1-0.7,0.3c-0.8,0.5-2.1,1.6-2.8,2.4c-0.1,0.1-0.3,0.4-0.4,0.5c-0.1,0.1-0.1,0.1-0.1,0.1
				C-421.3-432.4-420.4-432.4-420.1-432.6 M-422.4-430.8c-0.1,0.1-0.1,0.3-0.3,0.4c0,0.1-0.1,0.1-0.3,0.3c-0.3,0.1-0.4,0.1-0.7,0
				c-0.3-0.3-0.4-0.7-0.5-1.2c0-0.1,0-0.4,0-0.5c0-0.3-0.3-0.5-0.4-0.7c-0.1-0.3-0.3-0.8-0.3-1.2c0-1,0.4-2,1.2-2.8
				c0.7-0.7,1.6-1.4,2.5-1.8c1-0.4,2.3-0.7,3.4-0.3c0.3,0.1,0.8,0.4,1,0.7l0.1,0.1c0,0,0.1,0,0.3,0c0.3,0,0.8,0.3,1,0.4
				c0.4,0.3,0.5,0.7,0.7,1.2c0.1,1-0.3,2-1,2.5c-1,1.2-2.1,1.8-3.4,2.4c-0.5,0.3-1.6,0.4-2.1,0.4c-0.1,0-0.4-0.1-0.5-0.1
				C-421.8-430.7-422.1-430.7-422.4-430.8C-422.2-430.8-422.4-430.8-422.4-430.8 M-454.5-428.2c0.5,0,0.8,0,1.3-0.3
				c0.3-0.1,0.5-0.3,0.4-0.5c-0.1-0.1-0.4-0.3-0.5-0.3C-453.9-429.1-454.4-428.7-454.5-428.2C-454.7-428.2-454.7-428.2-454.5-428.2
				 M-452-429.6c0.3,0.4,0.4,0.8,0.5,1.4c0,0.5-0.1,1-0.4,1.4c-0.5,0.7-1.3,1-2.1,1.2c-0.1,0-0.8,0-1,0l0,0c0,0-0.1,0.4-0.1,0.7
				c-0.1,0.5-0.1,1-0.3,1.4c0,0.4-0.1,0.7-0.1,1.2c-0.1,2.3-0.1,3.4,0,5.7c0,0.1,0,0.3,0,0.4c0,0.3-0.3,0.4-0.4,0.5
				c-0.8,0.1-1.6-0.5-2-1.2c-0.8-1.4-0.5-4.5-0.3-5.8c0.1-0.5,0.4-2,0.5-2.4c0.1-0.3,0.3-0.7,0.3-0.8c0,0-0.4-0.1-0.8-0.3
				c-0.1,0-0.5-0.3-0.8-0.4c-0.4-0.3-0.7-0.4-1-0.8c-0.1-0.1-0.4-0.5-0.4-0.5c-0.3-0.5-0.3-1,0-1.6c0-0.1,0.3-0.7,0.5-0.7
				c0.3,0,0.3,0.4,0.3,0.7c0,0.1,0.1,0.3,0.1,0.3c0.4,0.4,1.7,1,2.3,1.2c0.1,0,0.8,0.3,1,0.3c0,0,0.1-0.3,0.3-0.4
				c0-0.1,0.1-0.1,0.1-0.3c0.5-0.5,1.3-1,2-1.3c0.3,0,1,0,1.3,0.1C-452.7-430-452.3-429.9-452-429.6 M-459.9-423L-459.9-423
				c0.4,0.1,0.4,0.8,0.4,1.2c-0.3,0.8-1,1.7-1.7,2.1c-0.4,0.3-1.2,0.5-1.7,0.7c-0.8,0.1-1.7,0-2.1-0.7c-0.4-0.5-0.5-1.4-0.7-2.1
				c-0.1-2.1,0.5-5.3,1.4-7c0.1-0.3,0.7-1.3,1.2-1.6c0.5-0.1,0.7,0.4,0.7,0.8c0,0.5-0.1,1.3-0.3,2c-0.3,1.2-0.5,2.8-0.7,3.3
				c-0.1,0.5-0.3,1.6-0.3,2.1c0,0.3,0.1,0.4,0.3,0.4c0.1,0,1.6-0.7,2.3-1C-460.6-423-460.3-423.2-459.9-423 M-470.6-424
				c0,0,0.1,0,0.3,0c0.5,0,1.4-0.1,1.4-0.1s-0.1-0.8-0.1-1.3c0-0.3-0.1-0.5-0.1-0.8c0-0.1-0.1-0.4-0.1-0.5l0,0c0,0-0.4,0.8-0.7,1.4
				c-0.1,0.4-0.3,0.8-0.4,1.2C-470.5-424.4-470.6-424.4-470.6-424C-470.6-424.1-470.6-424-470.6-424 M-473.5-424c0,0,0.3-0.5,0.4-1
				c0.1-0.4,1.3-2.5,1.7-3.2c0.4-0.7,1.4-2,1.4-2c0-0.1,0-0.4,0.1-0.5c0.1-0.1,0.3-0.3,0.5-0.3c0.2,0,0.5,0.1,0.7,0.4
				c0.3,0.4,0.5,1.6,0.7,1.8c0.4,1.6,1,4.6,1.2,6.2c0,0.4,0.1,2.5,0.1,3c0,0.3,0,0.8-0.1,1.2c0,0.1-0.1,0.1-0.3,0.1
				c-0.1,0-0.5-0.3-0.7-0.4c-0.4-0.4-0.7-0.8-0.8-1.3c-0.1-0.4-0.1-1.7-0.1-1.7l-1.8,0.1h-1c0,0-0.1,0.3-0.1,0.4
				c-0.1,0.4-0.3,0.8-0.4,1.2c-0.1,0.4-0.4,1.4-0.4,1.6c-0.1,0.3-0.3,0.5-0.5,0.5c-0.2,0-0.5,0-0.8,0c-0.4-0.3-0.7-0.8-0.7-1.3
				c-0.1-1,0.3-1.7,0.7-2.9c0.1-0.4,0-0.5-0.4-1.3c0-0.1-0.1-0.1-0.1-0.3c0,0,0-0.3,0.1-0.3c0,0,0,0,0.1,0
				C-474.5-423.9-473.5-424-473.5-424z M-484.2-430.2c0,0,0-0.5-0.1-1c0-0.3-0.1-0.5-0.3-0.7c-0.1-0.3-0.3-0.4-0.4-0.4
				c-0.3,0-0.4,0.1-0.5,0.4c-0.3,0.4-0.4,1.2-0.5,1.6c-0.1,0.5-0.3,1-0.4,1.7c-0.1,1.2-0.4,3.3-0.1,4.6c0,0.3,0.1,0.5,0.1,0.5
				s0.3-0.3,0.4-0.5c0.1-0.1,0.5-0.7,0.5-0.8c0.1-0.1,0.3-0.4,0.3-0.5s0.3-0.7,0.4-0.8c0.1-0.3,0.3-0.7,0.4-1.2
				c0.3-0.8,0.3-1.2,0.4-2.1C-484.2-429.5-484.2-430.2-484.2-430.2L-484.2-430.2 M-486.2-421.3c0,0,0.1,0.1,0.1,0.3
				c0.4,0.8,1.3,1.3,2.3,1.3c1,0,2.3-0.5,3-1c2-1.4,3.2-4,3.7-6.6c0.7-2.9,0.7-5.9-0.1-8.8c-0.4-1.6-1.4-3.7-2.5-4.9
				c-0.3-0.4-0.8-0.8-1-1c-0.1-0.1-0.1-0.4,0-0.5c0.3-0.1,0.8,0.1,1.2,0.3c1.4,0.8,2.3,1.7,3,2.9c0.1,0.3,1,1.6,1.2,1.8
				c0.8,1.7,1.4,3.3,1.6,5.1c0.3,2.4,0.1,5.1-0.7,7.5c-0.4,1-1,2.1-1.6,3.2c-0.1,0.3-1,1.4-1.2,1.4c-0.3,0.3-1,1-1.4,1.3
				c-1.7,1.4-3.6,2.3-5.5,2c-1.2-0.1-2-0.5-2.9-1.3c-0.3-0.3-0.8-0.8-1.2-1.3c-0.1-0.3-0.3-0.5-0.4-0.5c0,0-0.1,0-0.3,0.1
				c-0.1,0-0.4,0.3-0.7,0.3c-1.4,0.5-3,0.4-4.1-0.4c-0.8-0.5-1.7-1.7-2-2.8c-0.5-1.6-0.5-3.2-0.3-4.7c0.3-2.8,1.3-5.4,2.9-7.8
				c1-1.4,2.1-2.9,3.6-3.8c0.1-0.1,1-0.5,1.3-0.7s0.7-0.3,1,0c0.1,0.1,0.1,0.3,0,0.4c-0.1,0.3-0.5,0.7-0.7,0.8
				c-0.2,0.1-1.3,1.6-1.4,1.8c-0.3,0.3-1.3,2-1.4,2.1c-1.4,2.4-2.4,6.2-2.3,9c0,0.5,0.1,1.4,0.3,2c0.1,0.7,0.5,1.8,1.3,2.3
				c0.7,0.5,1.4,0.4,2.3,0.1c0.3-0.1,0.5-0.3,0.5-0.3s-0.3-0.5-0.4-1.2c-0.4-1.3-0.5-3.4-0.4-4.9c0.1-1.2,0.4-2.1,1-3.2
				c0.4-0.7,1-1.6,1.7-2.1s1.8-1.2,2.9-1.2c0.8,0,1.7,0.3,2.1,1.2c0.7,1.3,0.8,3.3,0.5,4.7c-0.3,2-1.4,4-2.9,5.3
				C-485.2-422-486.2-421.3-486.2-421.3 M-421-428.7h0.1c0.4,0.1,0.7,0.5,0.8,1.2c0.3,1.2,0.4,3.6,0.4,4.6c0,0.7,0,1.4,0.1,2.1
				c0,0.5,0.1,1.4,0,2c0,0.1-0.1,0.4-0.4,0.5c-0.3,0.1-0.7,0.1-1,0.1c-0.7-0.1-0.8-0.5-1-1.3c-0.3-1.6-0.1-4.9,0-6.2
				c0-0.4,0.3-1.8,0.4-2.4C-421.5-428.5-421.3-428.9-421-428.7 M-442.5-426.3c0,0-1,0.1-1.7,0.1c-0.8,0.1-2.5,0.4-3.6,0.7
				c-0.3,0.1-0.8,0.3-1,0.7c0,0.3,0.1,0.5,0.3,0.8c0.1,0.1,0.8,0.8,1,1c0.8,0.7,2.5,1.7,3.7,2.3c0.4,0.1,1.2,0.4,1.2,0.4s0-2,0-4
				C-442.5-425.3-442.5-426.3-442.5-426.3 M-423.7-425.6c0,0.5-0.1,1.6-0.1,1.7c0,0.3-0.3,1-0.3,1.2c-0.1,0.4-0.4,0.8-0.5,1.2
				c-0.3,0.5-1.2,1.6-1.6,2c-1.7,1.6-4.6,2.4-6.9,2.8c-1.6,0.1-3.4,0.1-5.1-0.1c-0.5-0.1-1.4-0.3-1.4-0.3s0,0.3,0,0.5
				c0,0.1-0.1,0.4-0.1,0.4c-0.1,0.3-0.3,0.4-0.5,0.4c-0.3,0-0.7,0.1-1,0c-0.5-0.3-0.7-0.7-0.8-1.3c-0.1-0.4-0.1-1.3-0.1-1.3
				s-0.4-0.1-0.7-0.3c-1-0.5-2-1.2-2.9-1.7c-0.3-0.1-1.3-1-1.4-1.3c-0.5-0.5-1.2-1.2-1.6-2c-0.3-0.5-0.4-1.2-0.1-1.7
				c0.3-0.8,1.6-1.6,2.4-1.8c0.5-0.3,2.5-0.8,3.4-1c0.4,0,1-0.1,1-0.1l0,0c0,0,0-0.8,0-1.3c0-0.3,0.3-2.4,0.3-2.9
				c0-0.3,0.3-1.2,0.4-1.4c0.1-0.1,0.3-0.1,0.5,0c1,0.5,1.3,2.5,1.3,3.6c0,0.5,0,1.6,0,1.6s1.2,0,1.7,0s1.3,0.1,2,0.3
				c0.8,0.1,2.5,0.5,3.4,1c0.8,0.4,1.6,1,1.7,1.7c0.3,0.7,0.1,1.2-0.1,1.7c-0.4,0.7-1.2,1.2-1.8,1.2c-0.3,0-1-0.1-1.3-0.3
				c-0.1-0.1-0.1-0.3,0-0.3c0,0,0.4-0.3,0.5-0.3c0.1,0,0.1-0.1,0.3-0.1c0.1-0.1,0.3-0.3,0.3-0.5s-0.3-0.4-0.5-0.5
				c-1.3-0.5-3.8-1-5.1-1c-0.4,0-1.2,0-1.2,0l0.1,7c0,0,0.5,0.1,1,0.1c0.3,0,1.4,0.1,1.7,0.1c2.3,0,4.7-0.1,6.9-1.2
				c0.8-0.4,1.7-1,2.4-1.7c0.8-1,1.3-2.3,1.2-3.6c-0.1-1.4-1.2-3.3-2-4.2c-2.1-2.9-5.9-5.1-9.2-6.6c-3.4-1.4-6.7-2.1-10.3-2.3
				c-0.8,0-3,0-4,0.3c-0.1,0-0.3,0.1-0.4,0.1c-0.1,0-0.3,0.1-0.3,0.1l0,0c0,0,0,0,0.1,0c0.1,0,0.5,0.1,0.8,0.1
				c0.1,0,0.4,0.1,0.5,0.3c0.1,0.1,0.1,0.3,0,0.4c-0.3,0.3-1.2,0.3-1.4,0.1c-0.4,0-0.8-0.1-1-0.5c-0.1-0.4,0.1-0.8,0.3-1.2
				c0.4-0.7,1-1.2,1.8-1.4c1.3-0.3,2.9-0.5,4-0.5c2.8-0.1,5.3,0.4,7.9,1.2c1.4,0.4,3.4,1.2,4.9,1.8c1,0.4,2.5,1.4,3.6,2
				c0.3,0.1,2,1.4,2.3,1.6c0.5,0.4,1.3,1.2,1.7,1.6c1,1,2.3,2.4,2.9,3.7c0.1,0.3,0.3,0.5,0.4,0.8c0,0.1,0.3,0.8,0.4,1
				c0,0.1,0.1,0.4,0.1,0.4C-423.8-426.3-423.7-425.7-423.7-425.6 M-412.1-425L-412.1-425c1,0.1,1.7,0.3,2.3,0.5
				c0.6,0.2,0.8,0.5,1.3,1.2c0.4,0.8,0.4,2.1,0.1,3c-0.3,0.7-1,1.3-1.6,1.6c-0.7,0.3-1.3,0.4-2,0.5c-1.3,0.1-2.8-0.1-3.8-0.7
				c-0.7-0.3-1.6-0.8-2-1.7c-0.3-0.5-0.3-1.3,0.1-1.7c0.5-0.8,1.8-1,2.9-1c0.7,0,2.1,0.3,2.9,0.5c0.1,0,0.8,0.3,1,0.4
				c0.1,0.1,0.1,0.3,0.1,0.3c-0.1,0.4-1.4,0.7-1.7,0.8c-1,0.1-1.4-0.1-2.4-0.5c-0.3-0.1-0.5-0.3-0.8-0.3c-0.4,0-1,0.1-1.2,0.5
				c0,0.3,0.3,0.5,0.5,0.5c0.5,0.3,1,0.3,1.6,0.3c1.7,0,3.4-0.3,4.9-1.2c0.1-0.1,0.4-0.3,0.4-0.5c0,0,0-0.3-0.1-0.3l0,0l-0.1-0.1
				c-0.1-0.1-0.4-0.3-0.5-0.3c-0.8-0.4-2.5-0.5-3.4-0.5c-0.8-0.1-2.3-0.1-2.8-0.3c-0.3,0-0.7-0.1-1-0.3c-0.3-0.1-0.5-0.4-0.7-0.8
				c-0.1-0.5,0-1.4,0.4-1.8c0.8-1.3,3-1.7,4.6-2c1.6-0.1,4-0.1,5.4,0.5c0.3,0.1,0.3,0.3,0.3,0.4c-0.1,0.4-0.4,0.7-0.8,0.8
				c-0.4,0.1-1.4,0.1-1.7,0.3c-1.8,0.1-4,0-5.7,0.5c-0.1,0-0.4,0.1-0.4,0.1c-0.3,0.3,0.4,0.4,0.7,0.4c0,0,0,0,0.1,0L-412.1-425
				L-412.1-425z M-406.5-418.3c-0.7-0.3-0.8-1.4-0.8-2c-0.1-2,0.4-4.6,1-6.5c0.1-0.5,0.4-1.4,1-1.3c0.4,0,0.7,0.3,0.8,0.7
				c0.5,0.8,1.3,1.8,1.8,2.8s1.2,1.7,1.6,2.4c0,0.1,0.1,0.1,0.1,0.3c0.1,0.1,0.1,0.1,0.3,0c0,0,0-1,0-1.2c0-0.3,0-0.5-0.1-0.8
				c-0.1-0.7-0.3-1.8-0.5-2.5c-0.3-0.8-0.4-1.7-0.7-2.5c0-0.3-0.1-0.5-0.1-0.7c0-0.4,0.3-0.5,0.5-0.4c0.7,0.3,1.7,1.8,2,2.4
				c0.1,0.1,0.4,1.2,0.5,1.4c0.3,0.8,0.4,1.8,0.5,2.9c0.1,1,0,2.4-0.4,3.4c-0.1,0.3-0.4,0.8-0.7,1c-0.4,0.4-1.2,0.7-1.7,0.3
				c-0.5-0.3-1.6-2.1-1.7-2.4c-0.5-1-1.6-3-1.7-3.3l-0.1-0.1l-0.1,0.1c-0.1,0.5-0.1,3.3-0.1,3.3c0,0.4,0,1.6-0.1,2.1
				c-0.1,0.4-0.1,0.7-0.5,0.8C-405.9-418.2-406.2-418.2-406.5-418.3 M-396.4-418.4c-0.1,0-0.1-0.1-0.3-0.3c0,0-0.3-0.4-0.3-0.5
				c0-0.1-0.1-0.1-0.1-0.3c-0.3-0.5-0.3-1.3-0.1-1.8c0.1-0.5,0.3-0.5,0.5-1.4v-0.1c0-0.1-0.1-0.8-0.1-1.2c0-0.4,0.3-0.7,0.7-0.7h0.1
				c0.1,0,0.3-0.4,0.4-0.7c0.1-0.4,0.4-1.2,0.4-1.2s-0.5-0.1-1-0.3c-0.4-0.1-0.7-0.3-0.8-0.7c-0.1-0.4,0-0.5,0.3-0.7
				c0.1,0,1.4-0.3,1.7-0.3c0.4,0,1-0.1,1.4-0.1c0.4,0,2.3-0.3,2.9-0.3c0.8,0,1.4,0.4,2,1.2c0.3,0.4,0.4,0.8,0,1.2
				c-0.7,0.4-2.8,0.4-3.2,0.4c-0.5,0-1.4,0-1.4,0l-0.4,1.4c0,0,1.4,0,2.3,0c0.1,0,0.4,0,0.5,0c0.4,0.1,0.5,0.4,0.5,0.8
				c0,0.5-0.1,0.8-0.5,0.8c-0.3,0-2.9,0-3.2,0.1c-0.3,0-0.4,0-0.4,0s-0.1,0.4-0.3,1c-0.1,0.5-0.3,1-0.3,1s0.1,0,0.3,0s0.4,0,0.5,0
				c0.7-0.1,2-0.3,2.9-0.4c0.5-0.1,0.7-0.1,1,0.3c0.3,0.3,0.4,0.5,0.4,0.8s-0.3,0.5-0.5,0.8c-1,0.7-2.8,1.6-4,1.7
				c-0.5,0-0.7,0-1.3-0.1c-0.1,0-0.4-0.1-0.4-0.1C-396.2-418.3-396.4-418.4-396.4-418.4 M-380.2-425.6c-0.7,0.5-1.6,1.7-2,2.3
				c-0.5,0.7-1,1.7-1.6,2.4c-0.1,0.1-0.4,0.7-0.4,0.7s0.3,0,0.7,0c0.7-0.1,1.7-0.5,2.1-1c0.7-0.5,1.3-1.4,1.6-2.4
				c0.1-0.4,0.1-1.4-0.1-1.8C-379.9-425.6-380-425.7-380.2-425.6 M-385.3-417.5c0,0-0.1,0.5-0.4,1.2c-0.3,0.8-0.8,3.2-1,3.7
				c-0.1,1-0.7,3.7-0.8,3.8c0,0.1,0,0.1-0.1,0.1c-0.3,0.1-0.3,0.1-0.5,0c-0.4-0.1-0.7-0.4-1-0.7c-0.5-0.7-0.4-2.1-0.3-3
				c0.4-2.9,0.7-4.1,1.8-6.9c0,0,0,0,0-0.1c-0.3-0.7-0.5-1.6-0.5-2.3c0-2.3,1.3-4.5,2.8-6.2c0.1-0.1,0.8-1,1.2-1
				c0.3,0,0.4,0.4,0.3,0.7c-0.1,1-0.8,2-1.4,3c-0.5,1-0.7,1.4-1,2.3c0,0.1-0.1,0.7-0.1,0.8c0,0.3,0,0.5,0,0.5s0.8-1.3,1.4-2
				c0.3-0.4,0.5-0.7,0.8-1c0.3-0.3,1.3-1.4,1.6-1.7c0.5-0.5,0.8-0.8,1.6-1.3c0.5-0.3,1-0.3,1.6,0c0.8,0.5,1.2,1.7,1.3,2.8
				c0.1,1.2-0.1,2.4-0.5,3.4c-0.5,1.2-1.4,2-2.5,2.8c-1.2,0.7-2.4,1.3-3.7,1.3C-385.2-417.5-385.3-417.5-385.3-417.5"/>
		</g>
	</g>
</g>
</svg>
