<svg id="Artwork" xmlns="http://www.w3.org/2000/svg" viewBox="0 0 601.32 288.03"><defs><style>.cls-1{fill:#fff;}</style></defs><title>2020XXXX_WDI_VisualIdentity_LogoB_AmandaKees_TransparentFull</title><path class="cls-1" d="M443.16,287.41a4.72,4.72,0,0,1-6.67,0,4.6,4.6,0,0,1-1.38-3.35,4.72,4.72,0,0,1,9.43,0A4.6,4.6,0,0,1,443.16,287.41ZM437,281.19a3.91,3.91,0,0,0-1.18,2.87A4,4,0,0,0,437,287a4,4,0,0,0,5.73,0,4,4,0,0,0,1.17-2.9,4,4,0,0,0-1.18-2.87,4,4,0,0,0-5.71,0Zm4.42,5.13a2.23,2.23,0,0,1-1.44.48,2.43,2.43,0,0,1-1.81-.76,2.72,2.72,0,0,1-.75-2,2.92,2.92,0,0,1,.67-2,2.21,2.21,0,0,1,1.77-.79,2.66,2.66,0,0,1,1.24.28,1.87,1.87,0,0,1,1,1.64h-.78a1.44,1.44,0,0,0-.4-.84,1.38,1.38,0,0,0-1-.35,1.41,1.41,0,0,0-1.35.84,2.72,2.72,0,0,0,.17,2.63,1.44,1.44,0,0,0,1.25.6,1.36,1.36,0,0,0,.88-.28,1.45,1.45,0,0,0,.49-.81h.78A2.12,2.12,0,0,1,441.39,286.32Z" transform="translate(-1.74 -3.59)"/><path class="cls-1" d="M449.4,279.36h3.77a3.49,3.49,0,0,1,3,1.38,5.13,5.13,0,0,1,1,3.19,6.48,6.48,0,0,1-.56,2.72,3.43,3.43,0,0,1-3.38,2.14H449.4Zm3.52,8.34a3.45,3.45,0,0,0,1.05-.13,2.32,2.32,0,0,0,1.19-1,3.8,3.8,0,0,0,.53-1.46,5.19,5.19,0,0,0,.1-1,4.75,4.75,0,0,0-.68-2.73,2.53,2.53,0,0,0-2.2-1h-2.22v7.25Z" transform="translate(-1.74 -3.59)"/><path class="cls-1" d="M458.69,279.36h1.18v1.31h-1.18Zm0,2.58h1.18v6.85h-1.18Z" transform="translate(-1.74 -3.59)"/><path class="cls-1" d="M462.3,286.63a1.7,1.7,0,0,0,.3.89,1.88,1.88,0,0,0,1.55.56,2.28,2.28,0,0,0,1.15-.28.93.93,0,0,0,.5-.86.74.74,0,0,0-.4-.68,5.36,5.36,0,0,0-1-.33l-.94-.23a4.59,4.59,0,0,1-1.32-.49,1.46,1.46,0,0,1-.76-1.29,2,2,0,0,1,.72-1.58,2.82,2.82,0,0,1,1.92-.61,2.7,2.7,0,0,1,2.27.91,2,2,0,0,1,.42,1.25h-1.09a1.37,1.37,0,0,0-.28-.71,1.86,1.86,0,0,0-1.42-.45,1.69,1.69,0,0,0-1,.25.77.77,0,0,0-.35.66.79.79,0,0,0,.46.71,2.83,2.83,0,0,0,.77.29l.78.18a6.05,6.05,0,0,1,1.7.59,1.54,1.54,0,0,1,.67,1.39,2.13,2.13,0,0,1-.7,1.59,3.06,3.06,0,0,1-2.15.67,2.91,2.91,0,0,1-2.2-.7,2.6,2.6,0,0,1-.7-1.73Z" transform="translate(-1.74 -3.59)"/><path class="cls-1" d="M468.2,281.91h1.09v1a3.28,3.28,0,0,1,1-.87,2.82,2.82,0,0,1,1.21-.26,2,2,0,0,1,2,1,3.6,3.6,0,0,1,.29,1.6v4.41h-1.18v-4.33a2.29,2.29,0,0,0-.19-1,1.12,1.12,0,0,0-1.12-.64,2.51,2.51,0,0,0-.67.08,1.67,1.67,0,0,0-.83.57,1.62,1.62,0,0,0-.38.7,4.58,4.58,0,0,0-.09,1v3.6H468.2Z" transform="translate(-1.74 -3.59)"/><path class="cls-1" d="M479.76,282.1a2.66,2.66,0,0,1,1.05.89,3.13,3.13,0,0,1,.46,1.22,8.69,8.69,0,0,1,.1,1.51h-5a3,3,0,0,0,.49,1.69,1.65,1.65,0,0,0,1.43.63,1.84,1.84,0,0,0,1.43-.6,2,2,0,0,0,.42-.81h1.14a2.35,2.35,0,0,1-.3.85,3.33,3.33,0,0,1-.56.76,2.7,2.7,0,0,1-1.3.7,4.37,4.37,0,0,1-.94.1,2.84,2.84,0,0,1-2.16-.94,3.65,3.65,0,0,1-.89-2.62,4,4,0,0,1,.9-2.69,2.92,2.92,0,0,1,2.33-1A3.05,3.05,0,0,1,479.76,282.1Zm.42,2.7a3.06,3.06,0,0,0-.33-1.2,1.66,1.66,0,0,0-1.57-.83,1.72,1.72,0,0,0-1.32.57,2.15,2.15,0,0,0-.57,1.46Z" transform="translate(-1.74 -3.59)"/><path class="cls-1" d="M487.14,281.91h1.28c-.17.44-.53,1.45-1.09,3-.42,1.19-.77,2.15-1.06,2.9a18.79,18.79,0,0,1-1.41,3.21,1.61,1.61,0,0,1-1.41.57,2,2,0,0,1-.38,0,1.89,1.89,0,0,1-.32-.07v-1a2.68,2.68,0,0,0,.44.1,1,1,0,0,0,.23,0,.86.86,0,0,0,.48-.1,1,1,0,0,0,.25-.26s.1-.21.23-.53l.29-.7-2.55-7.09h1.31l1.85,5.61Z" transform="translate(-1.74 -3.59)"/><path class="cls-1" d="M115,89.71a2,2,0,0,1,1.45-1.49L122.63,87c.68-.14.68-.36,0-.5l-6.24-1.32a2,2,0,0,1-1.45-1.51l-1.7-9.78c-.13-.68-.32-.68-.43,0l-1.65,9.82a2,2,0,0,1-1.45,1.5l-6.16,1.28c-.68.14-.68.37,0,.51l6.22,1.24a2,2,0,0,1,1.44,1.49l1.6,9.75c.11.68.31.68.43,0Z" transform="translate(-1.74 -3.59)"/><path class="cls-1" d="M115.48,124.49a1.57,1.57,0,0,1,1.16-1.17l4.89-1c.54-.11.54-.28,0-.4l-4.93-1a1.6,1.6,0,0,1-1.15-1.19L114.09,112c-.09-.53-.24-.53-.33,0l-1.31,7.78a1.56,1.56,0,0,1-1.14,1.19l-4.88,1c-.54.11-.54.29,0,.4l4.92,1a1.56,1.56,0,0,1,1.14,1.19l1.27,7.72c.09.54.24.54.34,0Z" transform="translate(-1.74 -3.59)"/><path class="cls-1" d="M134.84,107.1a2.62,2.62,0,0,1,1.93-2l8.19-1.61c.9-.17.9-.47,0-.67l-8.26-1.74a2.68,2.68,0,0,1-1.92-2l-2.25-12.95c-.17-.9-.42-.9-.57,0l-2.19,13a2.63,2.63,0,0,1-1.91,2l-8.16,1.69c-.9.19-.9.49,0,.67l8.23,1.64a2.58,2.58,0,0,1,1.9,2L132,120.07c.15.9.41.9.57,0Z" transform="translate(-1.74 -3.59)"/><path class="cls-1" d="M160.29,79.73A3.69,3.69,0,0,1,163,77l11.44-2.19c1.26-.24,1.26-.66,0-.93l-11.52-2.47a3.79,3.79,0,0,1-2.67-2.8l-3.08-18.06c-.21-1.26-.57-1.26-.79,0l-3.11,18.13a3.67,3.67,0,0,1-2.68,2.76l-11.4,2.32c-1.25.26-1.26.68,0,.93L150.66,77a3.62,3.62,0,0,1,2.66,2.76l2.89,18c.21,1.27.56,1.28.79,0Z" transform="translate(-1.74 -3.59)"/><path class="cls-1" d="M137.4,46.7a5.26,5.26,0,0,1,3.85-3.92l16.35-3.2c1.8-.35,1.81-.95,0-1.33l-16.49-3.49a5.33,5.33,0,0,1-3.83-4L132.78,4.94c-.32-1.81-.84-1.81-1.13,0l-4.37,26a5.26,5.26,0,0,1-3.82,4l-16.3,3.39c-1.79.37-1.79,1,0,1.32l16.43,3.28a5.22,5.22,0,0,1,3.81,4l4.24,25.78c.3,1.8.81,1.8,1.13,0Z" transform="translate(-1.74 -3.59)"/><path class="cls-1" d="M203.54,162.62a35.33,35.33,0,0,1-5.52-.12c-.72-6.3-1.75-20.52-.36-31.64.16-1.24,1.07-10.13,3.39-10.16,3.28,0,4.5,15.07,4.57,18.87C205.75,146.89,205.22,156.87,203.54,162.62Zm7.79,36.92c.12,1.78-.57,2.27-1.2,2.16-1.23-.23-2.82-4.71-4.18-7.93-.81-1.93-1.83-4.81-2.29-6.22C207.49,190.55,211,194.5,211.33,199.54Zm-11.51-26a26.89,26.89,0,0,1-1.2-5.88h3.48A24.21,24.21,0,0,1,199.82,173.53Zm-6.23,14c-1.56,3.59-4.33,9.78-9.79,9.76-6.3,0-13.8-9.16-17.3-15.39a72.36,72.36,0,0,0,4.56-14.74s12.46,3.59,20.85,11.62C192.51,181.8,193.11,185.27,193.59,187.55Zm-27.69-29a26.31,26.31,0,0,1-8.15-3.24c-.84-8.75-1.08-16.3,1.56-24,.84-2.16,1.68-3,2.52-3.12,1.07-.12,2,1.85,2.63,3.84C166,137.11,166.61,146.84,165.9,158.55Zm-2.76,17.62a47.52,47.52,0,0,1-4.67-12.47c.52-.25,2.59,0,6.83,1.2A36.15,36.15,0,0,1,163.14,176.17Zm-47,5.15c0-6.83,2.76-15.22,11.39-14.14.24,13.78,2.87,18.57,4.55,23.25C125.51,196.9,116.16,193.31,116.16,181.32Zm154.68-32.15c-.77-1.86-7.9-2.58-9.53-1.65-.7.4,0,.85.48,1.08.88.41,3,1.71.84,2.63C240.22,160.7,211.45,162,209.17,162a147.27,147.27,0,0,0,2.16-17.5c.5-10.66-.24-25.53-4.92-37-1.1-2.73-3.22-5-6.23-5a6.68,6.68,0,0,0-5.51,3.12c-6.59,9.35-6.68,28.28-6.83,34.52a125.93,125.93,0,0,0,1.67,22.17s-10.06-.12-17.74-2.28c1.45-15.49-.73-41.53-8-43.87-2.44-.78-4.71,0-7,2-2.07,1.89-9,8.73-9.83,23.73-.71,13.46,2.07,32.85,10.19,45.79-1.68,3.33-4.57,5.94-7.55,6-3.35.12-6.53-1.94-9.35-5.32,2.28-4.67,3.12-12.7,1.8-20.74-2.74-16.66-10.06-17.72-12-15.7-1.67,1.76-1.85,6.75-2.27,8.39-17.15-2.87-22.78,8.51-22.78,21.22,0,14.42,7.81,19.46,15.8,19.68,5.57.15,11.29-2.43,14.29-6,4.42,4.67,8.53,6.32,12.12,6.3,7.07-.06,11.91-6.29,13.41-9.05,4.86,6,11.93,11.82,19.77,12,8.16.23,15.36-7.39,15.59-7.73,1.19,3,3.09,8.33,5,9.68s4.89,2.54,11.4.51a11.15,11.15,0,0,0,7.19-7.19c1.76-6.66-4.57-13.55-7.67-16.54-2.56-2.47-6.11-6.12-7.55-7.79a54.06,54.06,0,0,0,3.35-7.91s43.75-4.32,58.5-12.11C268.93,154,271.75,151.38,270.84,149.17ZM571,158.79c-1.09-8.4.29-16.49,5.15-17.74,4.15-1.08,9,2.55,11.39,6,10.3,15,13.18,46-7.67,46.86C576.67,184.08,572.89,173.16,571,158.79Zm-69.4,29.12c-3.84-4.79,1.5-30.36,10.9-26.61C518.66,163.75,510.27,181.68,501.64,187.91Zm-82.35,1.2c-1.68-3.12-3.05-6.21-4.91-9.83a11,11,0,0,0-7-6.11s1.44-5.87,2.76-10.19C418.33,168.73,422.65,186.11,419.29,189.11ZM583,203.85c20-3.11,24.85-33.32,15.34-52.62-2.46-5-6.34-10.54-11.14-14.14-3.42-2.56-9.59-5.63-17-3.6-5.6,1.54-7.6,7.46-8.39,12.47-1.85,11.67,1,31.25,6,46.15-12.35-3.48-19.78-14-23.61-25.41-.89-2.63-2-3.37-2.76-3.72-2.48-1.07-6.95-2.28-9.23-1.44a1.62,1.62,0,0,0-.84,1.8c4,16.06-15.46,43.51-26.85,30.8,13.07-10.54,24.93-30.2,13.19-37.39A19.14,19.14,0,0,0,505,154.47c-21.77,3.27-15.82,33.68-12.22,39.79a12.65,12.65,0,0,1-10.19,2.64c-9.47-1.8-3.72-18.22-2-27a5.54,5.54,0,0,0-.36-3.11c-2.52-5-9-7.56-11.75-7.2-4.33.57-9.47,4.68-14,12.83a64.93,64.93,0,0,0-2.28-10.79c-1.2-4.19-10.31-4.67-13.3-3.71-1.74.55-.74,2.13.48,7.67,2.75,12.58.72,31.64-12.35,33.8,8.39-9,5.83-25-9.71-45.07a4,4,0,0,0-2-1.68,15.71,15.71,0,0,0-8.39.48c-2.85,1.11-3.14,5.53-3.57,9.95-.93,9.6-1.94,15.94-5.89,23.61-3.45,6.68-7.61,8.31-10.19,8-5.53-.58-8.21-19.29-8.56-30.71-.07-2.16-3-4.46-7.26-5a3.36,3.36,0,0,0-3.6,1.8c-1.74,4.22-1.2,10.07-1.08,15.11-.73,2.41-3.24,7.55-6.95,9.82-1.28.79-2.28,1.32-2,2.88a1,1,0,0,0,1.2,1c4.19-.48,6.35-3.12,8.63-6,1.56,6.35,3.31,13,7.67,17.86,4.2,4.67,12.83,3.47,15.82,1.43,3.61-2.45,9.35-8.87,13.19-16.78a45.24,45.24,0,0,0,2.63,6.84c6.12,12.46,14.39,13.63,18.1,13.3a24.28,24.28,0,0,0,20-14.5c.6,1,.84,5.51,1.08,8a3.94,3.94,0,0,0,1.56,2.63c1.32,1.08,5,2.4,7.67,2.88,1.55.28,2.51-.49,2.4-1.08-2.88-15.34.83-28.88,6.59-32.6,2.18-1.41,4.05-.86,3.59,2.16-4.18,27.69,5.62,32.39,14.23,32.22,4.37-.09,10.16-2.74,14.3-5.85,5.63,6.71,29,14,39.8-18.94,4.79,10.07,15.46,19.9,34.88,23.37C573,209.13,581,236,583,242.81c.67,2.23,5,17.12,3.12,22.65a8.84,8.84,0,0,1-8.51,6.48c-12.71.71-25.79-6.69-37.16-13.79-5.74-3.58-19.3-15.22-23.13-21.21-2.48-3.87-6.07-10.59-3.6-16.19,1.72-3.89,9.35-4.45,16.78-2.63,6.65,1.62,17.69,7.63,20,9.11,11.39,7.19,20.14,18.58,26.85,33.08.36,1,2.31.71,3-2.52,1.23-5.77-1.19-9.87-3.44-13.58-8.56-14.14-33.2-28.78-50-31.49-6.8-1.09-15.63-.93-20,4.8-5.57,7.28-1.5,19.06,3.24,26.61C517.41,255.7,533,270,550.3,277c16.06,6.49,27.81,5.3,32.24,4.19,8.52-2.11,15.12-8.24,15.54-16.34C598.56,255.57,591.21,229.77,583,203.85ZM356.84,178.32c0,9.83-9.23,21.82-29.6,21.82a46,46,0,0,1-35.48-17.62c-3,5-4.92,13.06-7.91,15.22a3.67,3.67,0,0,1-4,.08c-1.39-1-2.07-3.2-2-5.71.36-11,2.88-38.84,10.55-59.81a4.8,4.8,0,0,1,4-3.48c2-.24,5.87-.24,8,.72,1.32.59.51,3,0,4.67-1.92,6.24-4.44,12.83-5.88,18.7-1,4.21-1.91,7.19-1.91,7.19.95.6,2.66.23,3.17,1.82,1.31,4.2,1.11,7.83,3.13,11.93,2.63,5.34,11.6,14.66,28.1,16.46,5.15.56,11-.89,13.66-4.44,12.56-16.52-36.32-59.57-44-66s-23.51-17.61-31.4-25.77c-7.07-7.31-10.42-17.73-4.2-23.49,4.92-4.56,21.12-4.41,32,6.35,2.53,2.5,4.7,4.91,5.27,7.55s-.09,5.33-1.61,6c-.46.2-1.18.34-1.27,0-.13-.55.84-1.55,0-3.35-2.13-4.57-10.67-11.51-16.66-13.43a21.61,21.61,0,0,0-9-.94,3.69,3.69,0,0,0-3.35,3.58c-.09,3.1,1.91,8.51,9,13.9C320.54,124.61,356.84,155.91,356.84,178.32Zm23-39.07a25.74,25.74,0,0,1-4.92-7.07A21.58,21.58,0,0,1,374.1,118a5.84,5.84,0,0,1,3.24-3.83,7.84,7.84,0,0,1,6,.12c3.84,1.31,6.47,7,7.55,11.38,1,5.16-1.8,9.23-5.27,11.75A12.09,12.09,0,0,1,379.86,139.25ZM402,153.15c-5.27-1-12.83-5-16.54-8.75a19.22,19.22,0,0,0,4.67-.84,17.72,17.72,0,0,0,8-6c8.51-11.27-1.07-21.46-1.07-21.46-6.12-6.11-15-10.18-23.74-7.55,0,0-10.07,3.36-7.31,16.9a27.77,27.77,0,0,0,5.63,12.35c-17.26-5.15-16.06-15.7-16.06-15.7.12-2.64,1.8-10.31,12.35-12.35,0,0,1.08-.12,1.44-.72s-.12-1.08-.72-1.44c-4.32-1.79-10.19-.36-13.19,1.68a14.07,14.07,0,0,0-6.71,12.47s-.6,9.71,10.31,17.62c0,0,5.75,4.91,16.54,6.35,1.8.36,3.6,0,4.43.24,4.44,4,10.19,7.91,15.83,8.87,2.39.24,5.27.6,6.23-.6C402.63,153.63,402.51,153.15,402,153.15ZM45.8,167.65c-1.92-4.19-4.2-15.82-.72-22.41C47.84,153.75,46.16,161.66,45.8,167.65Zm8.87-85.34c-1.92-1.08-3.12-1.2-4.08,1.2a28.59,28.59,0,0,0-1.43,14.15c.24,1.91,1.07,2.75,2,2.15s1.08-4.91,2.64-5,4.32,3.83,7.43,8.15c9.11,12.23,20.38,34.64,23.37,62.09,2.52,23.25-2,41.83-9.34,42.67-9.35,1.08-18.7-12.11-22.54-19.78.72-4.55,3.48-20.14,3.24-32.12-.12-8.15-1.2-16.06-3.48-21.7-1.32-3.35-3.47-5.63-7.79-5.63s-7.67,3.48-9.47,9.71a60,60,0,0,0-2,20.5c.72,9.46,7.56,27.8,9.83,32.84,0,0-3.47,6.35-9.11,7.55-3,.6-6.95-.72-9.95-5.16-3.71-5.39-6.23-16.66-6.35-29-.24-16.66,3.36-34.76,13.91-44.23,2.87-2.52,9.35-4,13.06-2,1.56.84,2.52,2,3.24,1.92.48-.12.72-.84.24-1.56-3.6-5.15-9.83-6.71-15.59-6-7.67,1-14.62,8.51-19.41,15.58C5.65,139.49,2.29,155.31,1.81,163.82s1.08,27.57,16.78,38.48c3.36,2.27,7.19,4.19,11.75,4.19,7,0,12.34-3.48,17.26-7.43,0,0,9.95,18.34,25.41,18.34,14,0,27.69-22.78,27.69-45.79C100.7,138.29,75.65,94.3,54.67,82.31Z" transform="translate(-1.74 -3.59)"/><rect class="cls-1" x="29.14" y="217.08" width="7.6" height="48.23"/><path class="cls-1" d="M177.58,269.9c-15.29,0-26-10.31-26-25s10.69-25,26-25a28.16,28.16,0,0,1,10.89,1.88l.18.07L186,228.9l-.19-.08a21,21,0,0,0-8.25-1.6c-10.54,0-17.63,7.08-17.63,17.63s7.09,17.63,17.63,17.63a17.38,17.38,0,0,0,5.22-.74v-7.5h-9.52V247h17v20A25.68,25.68,0,0,1,177.58,269.9Z" transform="translate(-1.74 -3.59)"/><rect class="cls-1" x="200.88" y="217.08" width="7.6" height="48.23"/><polygon class="cls-1" points="270.03 265.31 270.03 217.08 295.15 217.08 295.15 224.31 277.63 224.31 277.63 243.42 290.81 243.42 290.81 250.66 277.63 250.66 277.63 258.08 295.4 258.08 295.4 265.31 270.03 265.31"/><polygon class="cls-1" points="307.62 265.31 307.62 217.08 332.74 217.08 332.74 224.31 315.23 224.31 315.23 243.42 328.39 243.42 328.39 250.66 315.23 250.66 315.23 258.08 332.99 258.08 332.99 265.31 307.62 265.31"/><path class="cls-1" d="M366.28,268.9l-11.73-14.3v14.3H347V220.67h8a19.43,19.43,0,0,1,9,1.82,16.64,16.64,0,0,1,8.55,15,16,16,0,0,1-10.24,15.19L376,268.9ZM356.1,247a9.15,9.15,0,0,0,5.11-1.34,9.4,9.4,0,0,0,4.13-8.22,9.73,9.73,0,0,0-4.14-8,9.1,9.1,0,0,0-5.1-1.46h-1.55v19Z" transform="translate(-1.74 -3.59)"/><rect class="cls-1" x="384.79" y="217.08" width="7.6" height="48.23"/><path class="cls-1" d="M477.69,269.9c-15.3,0-26-10.31-26-25s10.68-25,26-25a28.14,28.14,0,0,1,10.88,1.88l.18.07-2.69,7.15-.19-.08a21,21,0,0,0-8.25-1.6c-10.54,0-17.63,7.08-17.63,17.63s7.09,17.63,17.63,17.63a17.45,17.45,0,0,0,5.23-.74v-7.5h-9.53V247h17v20A25.62,25.62,0,0,1,477.69,269.9Z" transform="translate(-1.74 -3.59)"/><polygon class="cls-1" points="73.01 250.55 56.7 216.11 56.09 216.11 48.12 265.31 55.99 265.31 59.7 239.94 72.7 266.33 73.33 266.33 86.33 239.94 90.04 265.31 97.91 265.31 89.94 216.11 89.33 216.11 73.01 250.55"/><path class="cls-1" d="M128.07,219.7h-.63l-19.61,49.2h8.37l2.86-7.33h17.39l2.86,7.33h8.37Zm-6.37,34.76,6-16.13,6.05,16.13H121.7" transform="translate(-1.74 -3.59)"/><polygon class="cls-1" points="248.09 217.1 248.09 245.95 223.29 216.11 223 216.11 223 265.34 230.41 265.34 230.41 237.03 255.22 266.33 255.51 266.33 255.51 217.1 248.09 217.1"/><polygon class="cls-1" points="432 217.1 432 245.95 407.2 216.11 406.91 216.11 406.91 265.34 414.33 265.34 414.33 237.03 439.13 266.33 439.42 266.33 439.42 217.1 432 217.1"/></svg>